<?xml version="1.0" encoding="UTF-8" standalone="no"?>
<!DOCTYPE svg PUBLIC "-//W3C//DTD SVG 1.1//EN"
 "http://www.w3.org/Graphics/SVG/1.1/DTD/svg11.dtd">
<!-- Generated by graphviz version 2.47.0 (20210316.0004)
 -->
<!-- Title: dependencies Pages: 1 -->
<svg width="1016pt" height="211pt"
 viewBox="0.00 0.00 1016.00 211.00" xmlns="http://www.w3.org/2000/svg" xmlns:xlink="http://www.w3.org/1999/xlink">
<g id="graph0" class="graph" transform="scale(1 1) rotate(0) translate(4 207)">
<title>dependencies</title>
<polygon fill="white" stroke="transparent" points="-4,4 -4,-207 1012,-207 1012,4 -4,4"/>
<text text-anchor="start" x="483.01" y="-42.4" font-family="Times-12" font-weight="bold" font-size="14.00">Legend</text>
<polygon fill="#ffffb3" stroke="transparent" points="270,-10 270,-30 290,-30 290,-10 270,-10"/>
<text text-anchor="start" x="293.63" y="-15.4" font-family="Times-12" font-size="14.00"> &#160;Declarations</text>
<polygon fill="#8dd3c7" stroke="transparent" points="383,-10 383,-30 403,-30 403,-10 383,-10"/>
<text text-anchor="start" x="406.73" y="-15.4" font-family="Times-12" font-size="14.00"> &#160;Module</text>
<polygon fill="#80b1d3" stroke="transparent" points="469,-10 469,-30 489,-30 489,-10 469,-10"/>
<text text-anchor="start" x="492.78" y="-15.4" font-family="Times-12" font-size="14.00"> &#160;Bootstrap</text>
<polygon fill="#fdb462" stroke="transparent" points="566,-10 566,-30 586,-30 586,-10 566,-10"/>
<text text-anchor="start" x="589.67" y="-15.4" font-family="Times-12" font-size="14.00"> &#160;Providers</text>
<polygon fill="#fb8072" stroke="transparent" points="662,-10 662,-30 682,-30 682,-10 662,-10"/>
<text text-anchor="start" x="685.73" y="-15.4" font-family="Times-12" font-size="14.00"> &#160;Exports</text>
<g id="clust1" class="cluster">
<title>cluster_UserModule</title>
<polygon fill="none" stroke="black" stroke-dasharray="1,5" points="8,-70 8,-195 1000,-195 1000,-70 8,-70"/>
</g>
<g id="clust2" class="cluster">
<title>cluster_UserModule_declarations</title>
<polygon fill="none" stroke="black" points="502,-78 502,-130 992,-130 992,-78 502,-78"/>
</g>
<g id="clust6" class="cluster">
<title>cluster_UserModule_imports</title>
<polygon fill="none" stroke="black" points="346,-78 346,-130 494,-130 494,-78 346,-78"/>
</g>
<g id="clust9" class="cluster">
<title>cluster_UserModule_providers</title>
<polygon fill="none" stroke="black" points="16,-78 16,-130 338,-130 338,-78 16,-78"/>
</g>
<!-- UserDashboardComponent -->
<g id="node1" class="node">
<title>UserDashboardComponent</title>
<polygon fill="#ffffb3" stroke="black" points="984.4,-122 815.6,-122 815.6,-86 984.4,-86 984.4,-122"/>
<text text-anchor="middle" x="900" y="-99.8" font-family="Times,serif" font-size="14.00">UserDashboardComponent</text>
</g>
<!-- UserModule -->
<g id="node4" class="node">
<title>UserModule</title>
<polygon fill="#8dd3c7" stroke="black" points="542.98,-187 539.98,-191 518.98,-191 515.98,-187 457.02,-187 457.02,-151 542.98,-151 542.98,-187"/>
<text text-anchor="middle" x="500" y="-164.8" font-family="Times,serif" font-size="14.00">UserModule</text>
</g>
<!-- UserDashboardComponent&#45;&gt;UserModule -->
<g id="edge1" class="edge">
<title>UserDashboardComponent&#45;&gt;UserModule</title>
<path fill="none" stroke="black" d="M900,-122.28C900,-143.32 900,-175 900,-175 900,-175 553.19,-175 553.19,-175"/>
<polygon fill="black" stroke="black" points="553.19,-171.5 543.19,-175 553.19,-178.5 553.19,-171.5"/>
</g>
<!-- UserListComponent -->
<g id="node2" class="node">
<title>UserListComponent</title>
<polygon fill="#ffffb3" stroke="black" points="797.54,-122 668.46,-122 668.46,-86 797.54,-86 797.54,-122"/>
<text text-anchor="middle" x="733" y="-99.8" font-family="Times,serif" font-size="14.00">UserListComponent</text>
</g>
<!-- UserListComponent&#45;&gt;UserModule -->
<g id="edge2" class="edge">
<title>UserListComponent&#45;&gt;UserModule</title>
<path fill="none" stroke="black" d="M733,-122.02C733,-139.37 733,-163 733,-163 733,-163 553.01,-163 553.01,-163"/>
<polygon fill="black" stroke="black" points="553.01,-159.5 543.01,-163 553.01,-166.5 553.01,-159.5"/>
</g>
<!-- UsersPageComponent -->
<g id="node3" class="node">
<title>UsersPageComponent</title>
<polygon fill="#ffffb3" stroke="black" points="650.42,-122 509.58,-122 509.58,-86 650.42,-86 650.42,-122"/>
<text text-anchor="middle" x="580" y="-99.8" font-family="Times,serif" font-size="14.00">UsersPageComponent</text>
</g>
<!-- UsersPageComponent&#45;&gt;UserModule -->
<g id="edge3" class="edge">
<title>UsersPageComponent&#45;&gt;UserModule</title>
<path fill="none" stroke="black" d="M526.39,-122.11C526.39,-122.11 526.39,-140.99 526.39,-140.99"/>
<polygon fill="black" stroke="black" points="522.89,-140.99 526.39,-150.99 529.89,-140.99 522.89,-140.99"/>
</g>
<!-- UserRoutingModule -->
<g id="node5" class="node">
<title>UserRoutingModule</title>
<polygon fill="#8dd3c7" stroke="black" points="485.59,-122 482.59,-126 461.59,-126 458.59,-122 354.41,-122 354.41,-86 485.59,-86 485.59,-122"/>
<text text-anchor="middle" x="420" y="-99.8" font-family="Times,serif" font-size="14.00">UserRoutingModule</text>
</g>
<!-- UserRoutingModule&#45;&gt;UserModule -->
<g id="edge4" class="edge">
<title>UserRoutingModule&#45;&gt;UserModule</title>
<path fill="none" stroke="black" d="M471.28,-122.11C471.28,-122.11 471.28,-140.99 471.28,-140.99"/>
<polygon fill="black" stroke="black" points="467.78,-140.99 471.28,-150.99 474.78,-140.99 467.78,-140.99"/>
</g>
<!-- UserFacadeService -->
<g id="node6" class="node">
<title>UserFacadeService</title>
<ellipse fill="#fdb462" stroke="black" cx="244" cy="-104" rx="85.63" ry="18"/>
<text text-anchor="middle" x="244" y="-99.8" font-family="Times,serif" font-size="14.00">UserFacadeService</text>
</g>
<!-- UserFacadeService&#45;&gt;UserModule -->
<g id="edge5" class="edge">
<title>UserFacadeService&#45;&gt;UserModule</title>
<path fill="none" stroke="black" d="M244,-122.02C244,-139.37 244,-163 244,-163 244,-163 446.86,-163 446.86,-163"/>
<polygon fill="black" stroke="black" points="446.86,-166.5 456.86,-163 446.86,-159.5 446.86,-166.5"/>
</g>
<!-- UserService -->
<g id="node7" class="node">
<title>UserService</title>
<ellipse fill="#fdb462" stroke="black" cx="82" cy="-104" rx="58.44" ry="18"/>
<text text-anchor="middle" x="82" y="-99.8" font-family="Times,serif" font-size="14.00">UserService</text>
</g>
<!-- UserService&#45;&gt;UserModule -->
<g id="edge6" class="edge">
<title>UserService&#45;&gt;UserModule</title>
<path fill="none" stroke="black" d="M82,-122.28C82,-143.32 82,-175 82,-175 82,-175 446.84,-175 446.84,-175"/>
<polygon fill="black" stroke="black" points="446.84,-178.5 456.84,-175 446.84,-171.5 446.84,-178.5"/>
</g>
</g>
</svg>
