<?xml version="1.0" encoding="UTF-8" standalone="no"?>
<!DOCTYPE svg PUBLIC "-//W3C//DTD SVG 1.1//EN"
 "http://www.w3.org/Graphics/SVG/1.1/DTD/svg11.dtd">
<!-- Generated by graphviz version 2.47.0 (20210316.0004)
 -->
<!-- Title: dependencies Pages: 1 -->
<svg width="504pt" height="211pt"
 viewBox="0.00 0.00 504.00 211.00" xmlns="http://www.w3.org/2000/svg" xmlns:xlink="http://www.w3.org/1999/xlink">
<g id="graph0" class="graph" transform="scale(1 1) rotate(0) translate(4 207)">
<title>dependencies</title>
<polygon fill="white" stroke="transparent" points="-4,4 -4,-207 500,-207 500,4 -4,4"/>
<text text-anchor="start" x="227.01" y="-42.4" font-family="Times-12" font-weight="bold" font-size="14.00">Legend</text>
<polygon fill="#ffffb3" stroke="transparent" points="14,-10 14,-30 34,-30 34,-10 14,-10"/>
<text text-anchor="start" x="37.63" y="-15.4" font-family="Times-12" font-size="14.00"> &#160;Declarations</text>
<polygon fill="#8dd3c7" stroke="transparent" points="127,-10 127,-30 147,-30 147,-10 127,-10"/>
<text text-anchor="start" x="150.73" y="-15.4" font-family="Times-12" font-size="14.00"> &#160;Module</text>
<polygon fill="#80b1d3" stroke="transparent" points="213,-10 213,-30 233,-30 233,-10 213,-10"/>
<text text-anchor="start" x="236.78" y="-15.4" font-family="Times-12" font-size="14.00"> &#160;Bootstrap</text>
<polygon fill="#fdb462" stroke="transparent" points="310,-10 310,-30 330,-30 330,-10 310,-10"/>
<text text-anchor="start" x="333.67" y="-15.4" font-family="Times-12" font-size="14.00"> &#160;Providers</text>
<polygon fill="#fb8072" stroke="transparent" points="406,-10 406,-30 426,-30 426,-10 406,-10"/>
<text text-anchor="start" x="429.73" y="-15.4" font-family="Times-12" font-size="14.00"> &#160;Exports</text>
<g id="clust1" class="cluster">
<title>cluster_LoginModule</title>
<polygon fill="none" stroke="black" stroke-dasharray="1,5" points="23,-70 23,-195 473,-195 473,-70 23,-70"/>
</g>
<g id="clust7" class="cluster">
<title>cluster_LoginModule_providers</title>
<polygon fill="none" stroke="black" points="331,-78 331,-130 465,-130 465,-78 331,-78"/>
</g>
<g id="clust2" class="cluster">
<title>cluster_LoginModule_declarations</title>
<polygon fill="none" stroke="black" points="193,-78 193,-130 323,-130 323,-78 193,-78"/>
</g>
<g id="clust4" class="cluster">
<title>cluster_LoginModule_imports</title>
<polygon fill="none" stroke="black" points="31,-78 31,-130 185,-130 185,-78 31,-78"/>
</g>
<!-- LoginComponent -->
<g id="node1" class="node">
<title>LoginComponent</title>
<polygon fill="#ffffb3" stroke="black" points="315.28,-122 200.72,-122 200.72,-86 315.28,-86 315.28,-122"/>
<text text-anchor="middle" x="258" y="-99.8" font-family="Times,serif" font-size="14.00">LoginComponent</text>
</g>
<!-- LoginModule -->
<g id="node2" class="node">
<title>LoginModule</title>
<polygon fill="#8dd3c7" stroke="black" points="304.49,-187 301.49,-191 280.49,-191 277.49,-187 211.51,-187 211.51,-151 304.49,-151 304.49,-187"/>
<text text-anchor="middle" x="258" y="-164.8" font-family="Times,serif" font-size="14.00">LoginModule</text>
</g>
<!-- LoginComponent&#45;&gt;LoginModule -->
<g id="edge1" class="edge">
<title>LoginComponent&#45;&gt;LoginModule</title>
<path fill="none" stroke="black" d="M258,-122.11C258,-122.11 258,-140.99 258,-140.99"/>
<polygon fill="black" stroke="black" points="254.5,-140.99 258,-150.99 261.5,-140.99 254.5,-140.99"/>
</g>
<!-- LoginRoutingModule -->
<g id="node3" class="node">
<title>LoginRoutingModule</title>
<polygon fill="#8dd3c7" stroke="black" points="177.11,-122 174.11,-126 153.11,-126 150.11,-122 38.89,-122 38.89,-86 177.11,-86 177.11,-122"/>
<text text-anchor="middle" x="108" y="-99.8" font-family="Times,serif" font-size="14.00">LoginRoutingModule</text>
</g>
<!-- LoginRoutingModule&#45;&gt;LoginModule -->
<g id="edge2" class="edge">
<title>LoginRoutingModule&#45;&gt;LoginModule</title>
<path fill="none" stroke="black" d="M108,-122.11C108,-141.34 108,-169 108,-169 108,-169 201.36,-169 201.36,-169"/>
<polygon fill="black" stroke="black" points="201.36,-172.5 211.36,-169 201.36,-165.5 201.36,-172.5"/>
</g>
<!-- AuthService -->
<g id="node4" class="node">
<title>AuthService</title>
<ellipse fill="#fdb462" stroke="black" cx="398" cy="-104" rx="59.11" ry="18"/>
<text text-anchor="middle" x="398" y="-99.8" font-family="Times,serif" font-size="14.00">AuthService</text>
</g>
<!-- AuthService&#45;&gt;LoginModule -->
<g id="edge3" class="edge">
<title>AuthService&#45;&gt;LoginModule</title>
<path fill="none" stroke="black" d="M398,-122.11C398,-141.34 398,-169 398,-169 398,-169 314.62,-169 314.62,-169"/>
<polygon fill="black" stroke="black" points="314.62,-165.5 304.62,-169 314.62,-172.5 314.62,-165.5"/>
</g>
</g>
</svg>
