<?xml version="1.0" encoding="UTF-8" standalone="no"?>
<!DOCTYPE svg PUBLIC "-//W3C//DTD SVG 1.1//EN"
 "http://www.w3.org/Graphics/SVG/1.1/DTD/svg11.dtd">
<!-- Generated by graphviz version 2.47.0 (20210316.0004)
 -->
<!-- Title: dependencies Pages: 1 -->
<svg width="1495pt" height="284pt"
 viewBox="0.00 0.00 1495.00 284.00" xmlns="http://www.w3.org/2000/svg" xmlns:xlink="http://www.w3.org/1999/xlink">
<g id="graph0" class="graph" transform="scale(1 1) rotate(0) translate(4 280)">
<title>dependencies</title>
<polygon fill="white" stroke="transparent" points="-4,4 -4,-280 1491,-280 1491,4 -4,4"/>
<text text-anchor="start" x="722.51" y="-42.4" font-family="Times-12" font-weight="bold" font-size="14.00">Legend</text>
<polygon fill="#ffffb3" stroke="transparent" points="509.5,-10 509.5,-30 529.5,-30 529.5,-10 509.5,-10"/>
<text text-anchor="start" x="533.13" y="-15.4" font-family="Times-12" font-size="14.00"> &#160;Declarations</text>
<polygon fill="#8dd3c7" stroke="transparent" points="622.5,-10 622.5,-30 642.5,-30 642.5,-10 622.5,-10"/>
<text text-anchor="start" x="646.23" y="-15.4" font-family="Times-12" font-size="14.00"> &#160;Module</text>
<polygon fill="#80b1d3" stroke="transparent" points="708.5,-10 708.5,-30 728.5,-30 728.5,-10 708.5,-10"/>
<text text-anchor="start" x="732.28" y="-15.4" font-family="Times-12" font-size="14.00"> &#160;Bootstrap</text>
<polygon fill="#fdb462" stroke="transparent" points="805.5,-10 805.5,-30 825.5,-30 825.5,-10 805.5,-10"/>
<text text-anchor="start" x="829.17" y="-15.4" font-family="Times-12" font-size="14.00"> &#160;Providers</text>
<polygon fill="#fb8072" stroke="transparent" points="901.5,-10 901.5,-30 921.5,-30 921.5,-10 901.5,-10"/>
<text text-anchor="start" x="925.23" y="-15.4" font-family="Times-12" font-size="14.00"> &#160;Exports</text>
<g id="clust1" class="cluster">
<title>cluster_EstablishmentModule</title>
<polygon fill="none" stroke="black" stroke-dasharray="1,5" points="8,-70 8,-268 1479,-268 1479,-70 8,-70"/>
</g>
<g id="clust8" class="cluster">
<title>cluster_EstablishmentModule_imports</title>
<polygon fill="none" stroke="black" points="1011,-78 1011,-130 1471,-130 1471,-78 1011,-78"/>
</g>
<g id="clust2" class="cluster">
<title>cluster_EstablishmentModule_declarations</title>
<polygon fill="none" stroke="black" points="16,-78 16,-130 1003,-130 1003,-78 16,-78"/>
</g>
<g id="clust9" class="cluster">
<title>cluster_EstablishmentModule_exports</title>
<polygon fill="none" stroke="black" points="813,-208 813,-260 993,-260 993,-208 813,-208"/>
</g>
<!-- EstablishmentAddComponent -->
<g id="node1" class="node">
<title>EstablishmentAddComponent</title>
<polygon fill="#ffffb3" stroke="black" points="995.26,-122 810.74,-122 810.74,-86 995.26,-86 995.26,-122"/>
<text text-anchor="middle" x="903" y="-99.8" font-family="Times,serif" font-size="14.00">EstablishmentAddComponent</text>
</g>
<!-- EstablishmentModule -->
<g id="node6" class="node">
<title>EstablishmentModule</title>
<polygon fill="#8dd3c7" stroke="black" points="972.37,-187 969.37,-191 948.37,-191 945.37,-187 833.63,-187 833.63,-151 972.37,-151 972.37,-187"/>
<text text-anchor="middle" x="903" y="-164.8" font-family="Times,serif" font-size="14.00">EstablishmentModule</text>
</g>
<!-- EstablishmentAddComponent&#45;&gt;EstablishmentModule -->
<g id="edge1" class="edge">
<title>EstablishmentAddComponent&#45;&gt;EstablishmentModule</title>
<path fill="none" stroke="black" d="M903,-122.11C903,-122.11 903,-140.99 903,-140.99"/>
<polygon fill="black" stroke="black" points="899.5,-140.99 903,-150.99 906.5,-140.99 899.5,-140.99"/>
</g>
<!-- EstablishmentComponent -->
<g id="node2" class="node">
<title>EstablishmentComponent</title>
<polygon fill="#ffffb3" stroke="black" points="792.16,-122 631.84,-122 631.84,-86 792.16,-86 792.16,-122"/>
<text text-anchor="middle" x="712" y="-99.8" font-family="Times,serif" font-size="14.00">EstablishmentComponent</text>
</g>
<!-- EstablishmentComponent&#45;&gt;EstablishmentModule -->
<g id="edge2" class="edge">
<title>EstablishmentComponent&#45;&gt;EstablishmentModule</title>
<path fill="none" stroke="black" d="M712,-122.01C712,-138.05 712,-159 712,-159 712,-159 823.5,-159 823.5,-159"/>
<polygon fill="black" stroke="black" points="823.5,-162.5 833.5,-159 823.5,-155.5 823.5,-162.5"/>
</g>
<!-- EstablishmentEditComponent -->
<g id="node3" class="node">
<title>EstablishmentEditComponent</title>
<polygon fill="#ffffb3" stroke="black" points="613.99,-122 430.01,-122 430.01,-86 613.99,-86 613.99,-122"/>
<text text-anchor="middle" x="522" y="-99.8" font-family="Times,serif" font-size="14.00">EstablishmentEditComponent</text>
</g>
<!-- EstablishmentEditComponent&#45;&gt;EstablishmentModule -->
<g id="edge3" class="edge">
<title>EstablishmentEditComponent&#45;&gt;EstablishmentModule</title>
<path fill="none" stroke="black" d="M522,-122.27C522,-140.56 522,-166 522,-166 522,-166 823.56,-166 823.56,-166"/>
<polygon fill="black" stroke="black" points="823.56,-169.5 833.56,-166 823.56,-162.5 823.56,-169.5"/>
</g>
<!-- EstablishmentListComponent -->
<g id="node4" class="node">
<title>EstablishmentListComponent</title>
<polygon fill="#ffffb3" stroke="black" points="412.44,-122 229.56,-122 229.56,-86 412.44,-86 412.44,-122"/>
<text text-anchor="middle" x="321" y="-99.8" font-family="Times,serif" font-size="14.00">EstablishmentListComponent</text>
</g>
<!-- EstablishmentListComponent&#45;&gt;EstablishmentModule -->
<g id="edge4" class="edge">
<title>EstablishmentListComponent&#45;&gt;EstablishmentModule</title>
<path fill="none" stroke="black" d="M321,-122.13C321,-142.57 321,-173 321,-173 321,-173 823.38,-173 823.38,-173"/>
<polygon fill="black" stroke="black" points="823.38,-176.5 833.38,-173 823.38,-169.5 823.38,-176.5"/>
</g>
<!-- EstablishmentPageComponent -->
<g id="node5" class="node">
<title>EstablishmentPageComponent</title>
<polygon fill="#ffffb3" stroke="black" points="211.87,-122 24.13,-122 24.13,-86 211.87,-86 211.87,-122"/>
<text text-anchor="middle" x="118" y="-99.8" font-family="Times,serif" font-size="14.00">EstablishmentPageComponent</text>
</g>
<!-- EstablishmentPageComponent&#45;&gt;EstablishmentModule -->
<g id="edge5" class="edge">
<title>EstablishmentPageComponent&#45;&gt;EstablishmentModule</title>
<path fill="none" stroke="black" d="M118,-122.01C118,-144.49 118,-180 118,-180 118,-180 823.34,-180 823.34,-180"/>
<polygon fill="black" stroke="black" points="823.34,-183.5 833.34,-180 823.34,-176.5 823.34,-183.5"/>
</g>
<!-- EstablishmentComponent  -->
<g id="node11" class="node">
<title>EstablishmentComponent </title>
<polygon fill="#fb8072" stroke="black" points="985.16,-252 820.84,-252 820.84,-216 985.16,-216 985.16,-252"/>
<text text-anchor="middle" x="903" y="-229.8" font-family="Times,serif" font-size="14.00">EstablishmentComponent </text>
</g>
<!-- EstablishmentModule&#45;&gt;EstablishmentComponent  -->
<g id="edge10" class="edge">
<title>EstablishmentModule&#45;&gt;EstablishmentComponent </title>
<path fill="none" stroke="black" stroke-dasharray="5,2" d="M903,-187.11C903,-187.11 903,-205.99 903,-205.99"/>
<polygon fill="black" stroke="black" points="899.5,-205.99 903,-215.99 906.5,-205.99 899.5,-205.99"/>
</g>
<!-- EstablishmentRouting -->
<g id="node7" class="node">
<title>EstablishmentRouting</title>
<polygon fill="#8dd3c7" stroke="black" points="1463.44,-122 1460.44,-126 1439.44,-126 1436.44,-122 1322.56,-122 1322.56,-86 1463.44,-86 1463.44,-122"/>
<text text-anchor="middle" x="1393" y="-99.8" font-family="Times,serif" font-size="14.00">EstablishmentRouting</text>
</g>
<!-- EstablishmentRouting&#45;&gt;EstablishmentModule -->
<g id="edge6" class="edge">
<title>EstablishmentRouting&#45;&gt;EstablishmentModule</title>
<path fill="none" stroke="black" d="M1393,-122.01C1393,-144.49 1393,-180 1393,-180 1393,-180 982.43,-180 982.43,-180"/>
<polygon fill="black" stroke="black" points="982.43,-176.5 972.43,-180 982.43,-183.5 982.43,-176.5"/>
</g>
<!-- NgForOf -->
<g id="node8" class="node">
<title>NgForOf</title>
<polygon fill="#8dd3c7" stroke="black" points="1304.82,-122 1301.82,-126 1280.82,-126 1277.82,-122 1237.18,-122 1237.18,-86 1304.82,-86 1304.82,-122"/>
<text text-anchor="middle" x="1271" y="-99.8" font-family="Times,serif" font-size="14.00">NgForOf</text>
</g>
<!-- NgForOf&#45;&gt;EstablishmentModule -->
<g id="edge7" class="edge">
<title>NgForOf&#45;&gt;EstablishmentModule</title>
<path fill="none" stroke="black" d="M1271,-122.13C1271,-142.57 1271,-173 1271,-173 1271,-173 982.65,-173 982.65,-173"/>
<polygon fill="black" stroke="black" points="982.65,-169.5 972.65,-173 982.65,-176.5 982.65,-169.5"/>
</g>
<!-- NgIf -->
<g id="node9" class="node">
<title>NgIf</title>
<polygon fill="#8dd3c7" stroke="black" points="1219,-122 1216,-126 1195,-126 1192,-122 1165,-122 1165,-86 1219,-86 1219,-122"/>
<text text-anchor="middle" x="1192" y="-99.8" font-family="Times,serif" font-size="14.00">NgIf</text>
</g>
<!-- NgIf&#45;&gt;EstablishmentModule -->
<g id="edge8" class="edge">
<title>NgIf&#45;&gt;EstablishmentModule</title>
<path fill="none" stroke="black" d="M1192,-122.27C1192,-140.56 1192,-166 1192,-166 1192,-166 982.59,-166 982.59,-166"/>
<polygon fill="black" stroke="black" points="982.59,-162.5 972.59,-166 982.59,-169.5 982.59,-162.5"/>
</g>
<!-- NgOptimizedImage -->
<g id="node10" class="node">
<title>NgOptimizedImage</title>
<polygon fill="#8dd3c7" stroke="black" points="1146.69,-122 1143.69,-126 1122.69,-126 1119.69,-122 1019.31,-122 1019.31,-86 1146.69,-86 1146.69,-122"/>
<text text-anchor="middle" x="1083" y="-99.8" font-family="Times,serif" font-size="14.00">NgOptimizedImage</text>
</g>
<!-- NgOptimizedImage&#45;&gt;EstablishmentModule -->
<g id="edge9" class="edge">
<title>NgOptimizedImage&#45;&gt;EstablishmentModule</title>
<path fill="none" stroke="black" d="M1083,-122.01C1083,-138.05 1083,-159 1083,-159 1083,-159 982.59,-159 982.59,-159"/>
<polygon fill="black" stroke="black" points="982.59,-155.5 972.59,-159 982.59,-162.5 982.59,-155.5"/>
</g>
</g>
</svg>
