<?xml version="1.0" encoding="UTF-8" standalone="no"?>
<!DOCTYPE svg PUBLIC "-//W3C//DTD SVG 1.1//EN"
 "http://www.w3.org/Graphics/SVG/1.1/DTD/svg11.dtd">
<!-- Generated by graphviz version 2.47.0 (20210316.0004)
 -->
<!-- Title: dependencies Pages: 1 -->
<svg width="1047pt" height="284pt"
 viewBox="0.00 0.00 1047.00 284.00" xmlns="http://www.w3.org/2000/svg" xmlns:xlink="http://www.w3.org/1999/xlink">
<g id="graph0" class="graph" transform="scale(1 1) rotate(0) translate(4 280)">
<title>dependencies</title>
<polygon fill="white" stroke="transparent" points="-4,4 -4,-280 1043,-280 1043,4 -4,4"/>
<text text-anchor="start" x="498.51" y="-42.4" font-family="Times-12" font-weight="bold" font-size="14.00">Legend</text>
<polygon fill="#ffffb3" stroke="transparent" points="285.5,-10 285.5,-30 305.5,-30 305.5,-10 285.5,-10"/>
<text text-anchor="start" x="309.13" y="-15.4" font-family="Times-12" font-size="14.00"> &#160;Declarations</text>
<polygon fill="#8dd3c7" stroke="transparent" points="398.5,-10 398.5,-30 418.5,-30 418.5,-10 398.5,-10"/>
<text text-anchor="start" x="422.23" y="-15.4" font-family="Times-12" font-size="14.00"> &#160;Module</text>
<polygon fill="#80b1d3" stroke="transparent" points="484.5,-10 484.5,-30 504.5,-30 504.5,-10 484.5,-10"/>
<text text-anchor="start" x="508.28" y="-15.4" font-family="Times-12" font-size="14.00"> &#160;Bootstrap</text>
<polygon fill="#fdb462" stroke="transparent" points="581.5,-10 581.5,-30 601.5,-30 601.5,-10 581.5,-10"/>
<text text-anchor="start" x="605.17" y="-15.4" font-family="Times-12" font-size="14.00"> &#160;Providers</text>
<polygon fill="#fb8072" stroke="transparent" points="677.5,-10 677.5,-30 697.5,-30 697.5,-10 677.5,-10"/>
<text text-anchor="start" x="701.23" y="-15.4" font-family="Times-12" font-size="14.00"> &#160;Exports</text>
<g id="clust1" class="cluster">
<title>cluster_AppModule</title>
<polygon fill="none" stroke="black" stroke-dasharray="1,5" points="8,-70 8,-268 1031,-268 1031,-70 8,-70"/>
</g>
<g id="clust2" class="cluster">
<title>cluster_AppModule_declarations</title>
<polygon fill="none" stroke="black" points="901,-78 901,-130 1023,-130 1023,-78 901,-78"/>
</g>
<g id="clust4" class="cluster">
<title>cluster_AppModule_imports</title>
<polygon fill="none" stroke="black" points="16,-78 16,-130 893,-130 893,-78 16,-78"/>
</g>
<g id="clust6" class="cluster">
<title>cluster_AppModule_bootstrap</title>
<polygon fill="none" stroke="black" points="415,-208 415,-260 539,-260 539,-208 415,-208"/>
</g>
<!-- AppComponent -->
<g id="node1" class="node">
<title>AppComponent</title>
<polygon fill="#ffffb3" stroke="black" points="1014.94,-122 909.06,-122 909.06,-86 1014.94,-86 1014.94,-122"/>
<text text-anchor="middle" x="962" y="-99.8" font-family="Times,serif" font-size="14.00">AppComponent</text>
</g>
<!-- AppModule -->
<g id="node2" class="node">
<title>AppModule</title>
<polygon fill="#8dd3c7" stroke="black" points="518.66,-187 515.66,-191 494.66,-191 491.66,-187 435.34,-187 435.34,-151 518.66,-151 518.66,-187"/>
<text text-anchor="middle" x="477" y="-164.8" font-family="Times,serif" font-size="14.00">AppModule</text>
</g>
<!-- AppComponent&#45;&gt;AppModule -->
<g id="edge1" class="edge">
<title>AppComponent&#45;&gt;AppModule</title>
<path fill="none" stroke="black" d="M962,-122.29C962,-144.21 962,-178 962,-178 962,-178 528.77,-178 528.77,-178"/>
<polygon fill="black" stroke="black" points="528.77,-174.5 518.77,-178 528.77,-181.5 528.77,-174.5"/>
</g>
<!-- AppComponent  -->
<g id="node10" class="node">
<title>AppComponent </title>
<polygon fill="#80b1d3" stroke="black" points="531.44,-252 422.56,-252 422.56,-216 531.44,-216 531.44,-252"/>
<text text-anchor="middle" x="477" y="-229.8" font-family="Times,serif" font-size="14.00">AppComponent </text>
</g>
<!-- AppModule&#45;&gt;AppComponent  -->
<g id="edge9" class="edge">
<title>AppModule&#45;&gt;AppComponent </title>
<path fill="none" stroke="black" stroke-dasharray="1,5" d="M477,-187.11C477,-187.11 477,-205.99 477,-205.99"/>
<polygon fill="black" stroke="black" points="473.5,-205.99 477,-215.99 480.5,-205.99 473.5,-205.99"/>
</g>
<!-- AppRoutingModule -->
<g id="node3" class="node">
<title>AppRoutingModule</title>
<polygon fill="#8dd3c7" stroke="black" points="885.27,-122 882.27,-126 861.27,-126 858.27,-122 756.73,-122 756.73,-86 885.27,-86 885.27,-122"/>
<text text-anchor="middle" x="821" y="-99.8" font-family="Times,serif" font-size="14.00">AppRoutingModule</text>
</g>
<!-- AppRoutingModule&#45;&gt;AppModule -->
<g id="edge2" class="edge">
<title>AppRoutingModule&#45;&gt;AppModule</title>
<path fill="none" stroke="black" d="M821,-122.11C821,-141.34 821,-169 821,-169 821,-169 528.84,-169 528.84,-169"/>
<polygon fill="black" stroke="black" points="528.84,-165.5 518.84,-169 528.84,-172.5 528.84,-165.5"/>
</g>
<!-- BookingModule -->
<g id="node4" class="node">
<title>BookingModule</title>
<polygon fill="#8dd3c7" stroke="black" points="738.78,-122 735.78,-126 714.78,-126 711.78,-122 631.22,-122 631.22,-86 738.78,-86 738.78,-122"/>
<text text-anchor="middle" x="685" y="-99.8" font-family="Times,serif" font-size="14.00">BookingModule</text>
</g>
<!-- BookingModule&#45;&gt;AppModule -->
<g id="edge3" class="edge">
<title>BookingModule&#45;&gt;AppModule</title>
<path fill="none" stroke="black" d="M685,-122.03C685,-138.4 685,-160 685,-160 685,-160 529.09,-160 529.09,-160"/>
<polygon fill="black" stroke="black" points="529.09,-156.5 519.09,-160 529.09,-163.5 529.09,-156.5"/>
</g>
<!-- EstablishmentModule -->
<g id="node5" class="node">
<title>EstablishmentModule</title>
<polygon fill="#8dd3c7" stroke="black" points="613.37,-122 610.37,-126 589.37,-126 586.37,-122 474.63,-122 474.63,-86 613.37,-86 613.37,-122"/>
<text text-anchor="middle" x="544" y="-99.8" font-family="Times,serif" font-size="14.00">EstablishmentModule</text>
</g>
<!-- EstablishmentModule&#45;&gt;AppModule -->
<g id="edge4" class="edge">
<title>EstablishmentModule&#45;&gt;AppModule</title>
<path fill="none" stroke="black" d="M496.7,-122.11C496.7,-122.11 496.7,-140.99 496.7,-140.99"/>
<polygon fill="black" stroke="black" points="493.2,-140.99 496.7,-150.99 500.2,-140.99 493.2,-140.99"/>
</g>
<!-- HomeModule -->
<g id="node6" class="node">
<title>HomeModule</title>
<polygon fill="#8dd3c7" stroke="black" points="456.76,-122 453.76,-126 432.76,-126 429.76,-122 363.24,-122 363.24,-86 456.76,-86 456.76,-122"/>
<text text-anchor="middle" x="410" y="-99.8" font-family="Times,serif" font-size="14.00">HomeModule</text>
</g>
<!-- HomeModule&#45;&gt;AppModule -->
<g id="edge5" class="edge">
<title>HomeModule&#45;&gt;AppModule</title>
<path fill="none" stroke="black" d="M446.03,-122.11C446.03,-122.11 446.03,-140.99 446.03,-140.99"/>
<polygon fill="black" stroke="black" points="442.53,-140.99 446.03,-150.99 449.53,-140.99 442.53,-140.99"/>
</g>
<!-- LoginModule -->
<g id="node7" class="node">
<title>LoginModule</title>
<polygon fill="#8dd3c7" stroke="black" points="345.49,-122 342.49,-126 321.49,-126 318.49,-122 252.51,-122 252.51,-86 345.49,-86 345.49,-122"/>
<text text-anchor="middle" x="299" y="-99.8" font-family="Times,serif" font-size="14.00">LoginModule</text>
</g>
<!-- LoginModule&#45;&gt;AppModule -->
<g id="edge6" class="edge">
<title>LoginModule&#45;&gt;AppModule</title>
<path fill="none" stroke="black" d="M299,-122.03C299,-138.4 299,-160 299,-160 299,-160 425.27,-160 425.27,-160"/>
<polygon fill="black" stroke="black" points="425.27,-163.5 435.27,-160 425.27,-156.5 425.27,-163.5"/>
</g>
<!-- RegisterModule -->
<g id="node8" class="node">
<title>RegisterModule</title>
<polygon fill="#8dd3c7" stroke="black" points="234.2,-122 231.2,-126 210.2,-126 207.2,-122 127.8,-122 127.8,-86 234.2,-86 234.2,-122"/>
<text text-anchor="middle" x="181" y="-99.8" font-family="Times,serif" font-size="14.00">RegisterModule</text>
</g>
<!-- RegisterModule&#45;&gt;AppModule -->
<g id="edge7" class="edge">
<title>RegisterModule&#45;&gt;AppModule</title>
<path fill="none" stroke="black" d="M181,-122.11C181,-141.34 181,-169 181,-169 181,-169 425.22,-169 425.22,-169"/>
<polygon fill="black" stroke="black" points="425.22,-172.5 435.22,-169 425.22,-165.5 425.22,-172.5"/>
</g>
<!-- UserModule -->
<g id="node9" class="node">
<title>UserModule</title>
<polygon fill="#8dd3c7" stroke="black" points="109.98,-122 106.98,-126 85.98,-126 82.98,-122 24.02,-122 24.02,-86 109.98,-86 109.98,-122"/>
<text text-anchor="middle" x="67" y="-99.8" font-family="Times,serif" font-size="14.00">UserModule</text>
</g>
<!-- UserModule&#45;&gt;AppModule -->
<g id="edge8" class="edge">
<title>UserModule&#45;&gt;AppModule</title>
<path fill="none" stroke="black" d="M67,-122.29C67,-144.21 67,-178 67,-178 67,-178 425.05,-178 425.05,-178"/>
<polygon fill="black" stroke="black" points="425.05,-181.5 435.05,-178 425.05,-174.5 425.05,-181.5"/>
</g>
</g>
</svg>
