<?xml version="1.0" encoding="UTF-8" standalone="no"?>
<!DOCTYPE svg PUBLIC "-//W3C//DTD SVG 1.1//EN"
 "http://www.w3.org/Graphics/SVG/1.1/DTD/svg11.dtd">
<!-- Generated by graphviz version 2.47.0 (20210316.0004)
 -->
<!-- Title: dependencies Pages: 1 -->
<svg width="1511pt" height="284pt"
 viewBox="0.00 0.00 1511.00 284.00" xmlns="http://www.w3.org/2000/svg" xmlns:xlink="http://www.w3.org/1999/xlink">
<g id="graph0" class="graph" transform="scale(1 1) rotate(0) translate(4 280)">
<title>dependencies</title>
<polygon fill="white" stroke="transparent" points="-4,4 -4,-280 1507,-280 1507,4 -4,4"/>
<text text-anchor="start" x="730.51" y="-42.4" font-family="Times-12" font-weight="bold" font-size="14.00">Legend</text>
<polygon fill="#ffffb3" stroke="transparent" points="517.5,-10 517.5,-30 537.5,-30 537.5,-10 517.5,-10"/>
<text text-anchor="start" x="541.13" y="-15.4" font-family="Times-12" font-size="14.00"> &#160;Declarations</text>
<polygon fill="#8dd3c7" stroke="transparent" points="630.5,-10 630.5,-30 650.5,-30 650.5,-10 630.5,-10"/>
<text text-anchor="start" x="654.23" y="-15.4" font-family="Times-12" font-size="14.00"> &#160;Module</text>
<polygon fill="#80b1d3" stroke="transparent" points="716.5,-10 716.5,-30 736.5,-30 736.5,-10 716.5,-10"/>
<text text-anchor="start" x="740.28" y="-15.4" font-family="Times-12" font-size="14.00"> &#160;Bootstrap</text>
<polygon fill="#fdb462" stroke="transparent" points="813.5,-10 813.5,-30 833.5,-30 833.5,-10 813.5,-10"/>
<text text-anchor="start" x="837.17" y="-15.4" font-family="Times-12" font-size="14.00"> &#160;Providers</text>
<polygon fill="#fb8072" stroke="transparent" points="909.5,-10 909.5,-30 929.5,-30 929.5,-10 909.5,-10"/>
<text text-anchor="start" x="933.23" y="-15.4" font-family="Times-12" font-size="14.00"> &#160;Exports</text>
<g id="clust1" class="cluster">
<title>cluster_SessionModule</title>
<polygon fill="none" stroke="black" stroke-dasharray="1,5" points="8,-70 8,-268 1495,-268 1495,-70 8,-70"/>
</g>
<g id="clust9" class="cluster">
<title>cluster_SessionModule_exports</title>
<polygon fill="none" stroke="black" points="846,-208 846,-260 1136,-260 1136,-208 846,-208"/>
</g>
<g id="clust8" class="cluster">
<title>cluster_SessionModule_imports</title>
<polygon fill="none" stroke="black" points="1006,-78 1006,-130 1487,-130 1487,-78 1006,-78"/>
</g>
<g id="clust2" class="cluster">
<title>cluster_SessionModule_declarations</title>
<polygon fill="none" stroke="black" points="16,-78 16,-130 998,-130 998,-78 16,-78"/>
</g>
<!-- SessionComponent -->
<g id="node1" class="node">
<title>SessionComponent</title>
<polygon fill="#ffffb3" stroke="black" points="990.11,-122 865.89,-122 865.89,-86 990.11,-86 990.11,-122"/>
<text text-anchor="middle" x="928" y="-99.8" font-family="Times,serif" font-size="14.00">SessionComponent</text>
</g>
<!-- SessionModule -->
<g id="node6" class="node">
<title>SessionModule</title>
<polygon fill="#8dd3c7" stroke="black" points="1042.33,-187 1039.33,-191 1018.33,-191 1015.33,-187 939.67,-187 939.67,-151 1042.33,-151 1042.33,-187"/>
<text text-anchor="middle" x="991" y="-164.8" font-family="Times,serif" font-size="14.00">SessionModule</text>
</g>
<!-- SessionComponent&#45;&gt;SessionModule -->
<g id="edge1" class="edge">
<title>SessionComponent&#45;&gt;SessionModule</title>
<path fill="none" stroke="black" d="M964.95,-122.11C964.95,-122.11 964.95,-140.99 964.95,-140.99"/>
<polygon fill="black" stroke="black" points="961.45,-140.99 964.95,-150.99 968.45,-140.99 961.45,-140.99"/>
</g>
<!-- SessionDetailComponent -->
<g id="node2" class="node">
<title>SessionDetailComponent</title>
<polygon fill="#ffffb3" stroke="black" points="848.32,-122 689.68,-122 689.68,-86 848.32,-86 848.32,-122"/>
<text text-anchor="middle" x="769" y="-99.8" font-family="Times,serif" font-size="14.00">SessionDetailComponent</text>
</g>
<!-- SessionDetailComponent&#45;&gt;SessionModule -->
<g id="edge2" class="edge">
<title>SessionDetailComponent&#45;&gt;SessionModule</title>
<path fill="none" stroke="black" d="M769,-122.01C769,-138.05 769,-159 769,-159 769,-159 929.79,-159 929.79,-159"/>
<polygon fill="black" stroke="black" points="929.79,-162.5 939.79,-159 929.79,-155.5 929.79,-162.5"/>
</g>
<!-- SessionEstablishmentListingPageComponent -->
<g id="node3" class="node">
<title>SessionEstablishmentListingPageComponent</title>
<polygon fill="#ffffb3" stroke="black" points="672.31,-122 401.69,-122 401.69,-86 672.31,-86 672.31,-122"/>
<text text-anchor="middle" x="537" y="-99.8" font-family="Times,serif" font-size="14.00">SessionEstablishmentListingPageComponent</text>
</g>
<!-- SessionEstablishmentListingPageComponent&#45;&gt;SessionModule -->
<g id="edge3" class="edge">
<title>SessionEstablishmentListingPageComponent&#45;&gt;SessionModule</title>
<path fill="none" stroke="black" d="M537,-122.27C537,-140.56 537,-166 537,-166 537,-166 929.8,-166 929.8,-166"/>
<polygon fill="black" stroke="black" points="929.8,-169.5 939.8,-166 929.8,-162.5 929.8,-169.5"/>
</g>
<!-- SessionFilterComponent -->
<g id="node4" class="node">
<title>SessionFilterComponent</title>
<polygon fill="#ffffb3" stroke="black" points="384.44,-122 229.56,-122 229.56,-86 384.44,-86 384.44,-122"/>
<text text-anchor="middle" x="307" y="-99.8" font-family="Times,serif" font-size="14.00">SessionFilterComponent</text>
</g>
<!-- SessionFilterComponent&#45;&gt;SessionModule -->
<g id="edge4" class="edge">
<title>SessionFilterComponent&#45;&gt;SessionModule</title>
<path fill="none" stroke="black" d="M307,-122.13C307,-142.57 307,-173 307,-173 307,-173 929.59,-173 929.59,-173"/>
<polygon fill="black" stroke="black" points="929.59,-176.5 939.59,-173 929.59,-169.5 929.59,-176.5"/>
</g>
<!-- SessionsListingAllComponent -->
<g id="node5" class="node">
<title>SessionsListingAllComponent</title>
<polygon fill="#ffffb3" stroke="black" points="211.61,-122 24.39,-122 24.39,-86 211.61,-86 211.61,-122"/>
<text text-anchor="middle" x="118" y="-99.8" font-family="Times,serif" font-size="14.00">SessionsListingAllComponent</text>
</g>
<!-- SessionsListingAllComponent&#45;&gt;SessionModule -->
<g id="edge5" class="edge">
<title>SessionsListingAllComponent&#45;&gt;SessionModule</title>
<path fill="none" stroke="black" d="M118,-122.01C118,-144.49 118,-180 118,-180 118,-180 929.65,-180 929.65,-180"/>
<polygon fill="black" stroke="black" points="929.65,-183.5 939.65,-180 929.65,-176.5 929.65,-183.5"/>
</g>
<!-- SessionEstablishmentListingPageComponent  -->
<g id="node12" class="node">
<title>SessionEstablishmentListingPageComponent </title>
<polygon fill="#fb8072" stroke="black" points="1127.81,-252 854.19,-252 854.19,-216 1127.81,-216 1127.81,-252"/>
<text text-anchor="middle" x="991" y="-229.8" font-family="Times,serif" font-size="14.00">SessionEstablishmentListingPageComponent </text>
</g>
<!-- SessionModule&#45;&gt;SessionEstablishmentListingPageComponent  -->
<g id="edge11" class="edge">
<title>SessionModule&#45;&gt;SessionEstablishmentListingPageComponent </title>
<path fill="none" stroke="black" stroke-dasharray="5,2" d="M991,-187.11C991,-187.11 991,-205.99 991,-205.99"/>
<polygon fill="black" stroke="black" points="987.5,-205.99 991,-215.99 994.5,-205.99 987.5,-205.99"/>
</g>
<!-- NgClass -->
<g id="node7" class="node">
<title>NgClass</title>
<polygon fill="#8dd3c7" stroke="black" points="1478.94,-122 1475.94,-126 1454.94,-126 1451.94,-122 1415.06,-122 1415.06,-86 1478.94,-86 1478.94,-122"/>
<text text-anchor="middle" x="1447" y="-99.8" font-family="Times,serif" font-size="14.00">NgClass</text>
</g>
<!-- NgClass&#45;&gt;SessionModule -->
<g id="edge6" class="edge">
<title>NgClass&#45;&gt;SessionModule</title>
<path fill="none" stroke="black" d="M1447,-122.01C1447,-144.49 1447,-180 1447,-180 1447,-180 1052.42,-180 1052.42,-180"/>
<polygon fill="black" stroke="black" points="1052.42,-176.5 1042.42,-180 1052.42,-183.5 1052.42,-176.5"/>
</g>
<!-- NgForOf -->
<g id="node8" class="node">
<title>NgForOf</title>
<polygon fill="#8dd3c7" stroke="black" points="1397.82,-122 1394.82,-126 1373.82,-126 1370.82,-122 1330.18,-122 1330.18,-86 1397.82,-86 1397.82,-122"/>
<text text-anchor="middle" x="1364" y="-99.8" font-family="Times,serif" font-size="14.00">NgForOf</text>
</g>
<!-- NgForOf&#45;&gt;SessionModule -->
<g id="edge7" class="edge">
<title>NgForOf&#45;&gt;SessionModule</title>
<path fill="none" stroke="black" d="M1364,-122.13C1364,-142.57 1364,-173 1364,-173 1364,-173 1052.47,-173 1052.47,-173"/>
<polygon fill="black" stroke="black" points="1052.47,-169.5 1042.47,-173 1052.47,-176.5 1052.47,-169.5"/>
</g>
<!-- NgIf -->
<g id="node9" class="node">
<title>NgIf</title>
<polygon fill="#8dd3c7" stroke="black" points="1312,-122 1309,-126 1288,-126 1285,-122 1258,-122 1258,-86 1312,-86 1312,-122"/>
<text text-anchor="middle" x="1285" y="-99.8" font-family="Times,serif" font-size="14.00">NgIf</text>
</g>
<!-- NgIf&#45;&gt;SessionModule -->
<g id="edge8" class="edge">
<title>NgIf&#45;&gt;SessionModule</title>
<path fill="none" stroke="black" d="M1285,-122.27C1285,-140.56 1285,-166 1285,-166 1285,-166 1052.21,-166 1052.21,-166"/>
<polygon fill="black" stroke="black" points="1052.21,-162.5 1042.21,-166 1052.21,-169.5 1052.21,-162.5"/>
</g>
<!-- NgOptimizedImage -->
<g id="node10" class="node">
<title>NgOptimizedImage</title>
<polygon fill="#8dd3c7" stroke="black" points="1239.69,-122 1236.69,-126 1215.69,-126 1212.69,-122 1112.31,-122 1112.31,-86 1239.69,-86 1239.69,-122"/>
<text text-anchor="middle" x="1176" y="-99.8" font-family="Times,serif" font-size="14.00">NgOptimizedImage</text>
</g>
<!-- NgOptimizedImage&#45;&gt;SessionModule -->
<g id="edge9" class="edge">
<title>NgOptimizedImage&#45;&gt;SessionModule</title>
<path fill="none" stroke="black" d="M1120.16,-122.01C1120.16,-138.05 1120.16,-159 1120.16,-159 1120.16,-159 1052.42,-159 1052.42,-159"/>
<polygon fill="black" stroke="black" points="1052.42,-155.5 1042.42,-159 1052.42,-162.5 1052.42,-155.5"/>
</g>
<!-- RouterLink -->
<g id="node11" class="node">
<title>RouterLink</title>
<polygon fill="#8dd3c7" stroke="black" points="1094.05,-122 1091.05,-126 1070.05,-126 1067.05,-122 1013.95,-122 1013.95,-86 1094.05,-86 1094.05,-122"/>
<text text-anchor="middle" x="1054" y="-99.8" font-family="Times,serif" font-size="14.00">RouterLink</text>
</g>
<!-- RouterLink&#45;&gt;SessionModule -->
<g id="edge10" class="edge">
<title>RouterLink&#45;&gt;SessionModule</title>
<path fill="none" stroke="black" d="M1027.95,-122.11C1027.95,-122.11 1027.95,-140.99 1027.95,-140.99"/>
<polygon fill="black" stroke="black" points="1024.45,-140.99 1027.95,-150.99 1031.45,-140.99 1024.45,-140.99"/>
</g>
</g>
</svg>
