<?xml version="1.0" encoding="UTF-8" standalone="no"?>
<!DOCTYPE svg PUBLIC "-//W3C//DTD SVG 1.1//EN"
 "http://www.w3.org/Graphics/SVG/1.1/DTD/svg11.dtd">
<!-- Generated by graphviz version 2.47.0 (20210316.0004)
 -->
<!-- Title: dependencies Pages: 1 -->
<svg width="5321pt" height="428pt"
 viewBox="0.00 0.00 5321.00 428.00" xmlns="http://www.w3.org/2000/svg" xmlns:xlink="http://www.w3.org/1999/xlink">
<g id="graph0" class="graph" transform="scale(1 1) rotate(0) translate(4 424)">
<title>dependencies</title>
<polygon fill="white" stroke="transparent" points="-4,4 -4,-424 5317,-424 5317,4 -4,4"/>
<text text-anchor="start" x="2635.51" y="-42.4" font-family="Times-12" font-weight="bold" font-size="14.00">Legend</text>
<polygon fill="#ffffb3" stroke="transparent" points="2422.5,-10 2422.5,-30 2442.5,-30 2442.5,-10 2422.5,-10"/>
<text text-anchor="start" x="2446.13" y="-15.4" font-family="Times-12" font-size="14.00"> &#160;Declarations</text>
<polygon fill="#8dd3c7" stroke="transparent" points="2535.5,-10 2535.5,-30 2555.5,-30 2555.5,-10 2535.5,-10"/>
<text text-anchor="start" x="2559.23" y="-15.4" font-family="Times-12" font-size="14.00"> &#160;Module</text>
<polygon fill="#80b1d3" stroke="transparent" points="2621.5,-10 2621.5,-30 2641.5,-30 2641.5,-10 2621.5,-10"/>
<text text-anchor="start" x="2645.28" y="-15.4" font-family="Times-12" font-size="14.00"> &#160;Bootstrap</text>
<polygon fill="#fdb462" stroke="transparent" points="2718.5,-10 2718.5,-30 2738.5,-30 2738.5,-10 2718.5,-10"/>
<text text-anchor="start" x="2742.17" y="-15.4" font-family="Times-12" font-size="14.00"> &#160;Providers</text>
<polygon fill="#fb8072" stroke="transparent" points="2814.5,-10 2814.5,-30 2834.5,-30 2834.5,-10 2814.5,-10"/>
<text text-anchor="start" x="2838.23" y="-15.4" font-family="Times-12" font-size="14.00"> &#160;Exports</text>
<g id="clust1" class="cluster">
<title>cluster_AppModule</title>
<polygon fill="none" stroke="black" stroke-dasharray="1,5" points="1558,-146 1558,-412 2469,-412 2469,-146 1558,-146"/>
</g>
<g id="clust2" class="cluster">
<title>cluster_AppModule_declarations</title>
<polygon fill="none" stroke="black" points="2339,-222 2339,-274 2461,-274 2461,-222 2339,-222"/>
</g>
<g id="clust4" class="cluster">
<title>cluster_AppModule_imports</title>
<polygon fill="none" stroke="black" points="1566,-154 1566,-274 2331,-274 2331,-154 1566,-154"/>
</g>
<g id="clust6" class="cluster">
<title>cluster_AppModule_bootstrap</title>
<polygon fill="none" stroke="black" points="1993,-352 1993,-404 2117,-404 2117,-352 1993,-352"/>
</g>
<g id="clust14" class="cluster">
<title>cluster_BookingModule</title>
<polygon fill="none" stroke="black" stroke-dasharray="1,5" points="8,-70 8,-138 346,-138 346,-70 8,-70"/>
</g>
<g id="clust15" class="cluster">
<title>cluster_BookingModule_declarations</title>
<polygon fill="none" stroke="black" points="192,-78 192,-130 338,-130 338,-78 192,-78"/>
</g>
<g id="clust17" class="cluster">
<title>cluster_BookingModule_imports</title>
<polygon fill="none" stroke="black" points="16,-78 16,-130 184,-130 184,-78 16,-78"/>
</g>
<g id="clust27" class="cluster">
<title>cluster_EstablishmentModule</title>
<polygon fill="none" stroke="black" stroke-dasharray="1,5" points="2156,-70 2156,-138 3815,-138 3815,-70 2156,-70"/>
</g>
<g id="clust28" class="cluster">
<title>cluster_EstablishmentModule_declarations</title>
<polygon fill="none" stroke="black" points="2352,-78 2352,-130 3339,-130 3339,-78 2352,-78"/>
</g>
<g id="clust34" class="cluster">
<title>cluster_EstablishmentModule_imports</title>
<polygon fill="none" stroke="black" points="3347,-78 3347,-130 3807,-130 3807,-78 3347,-78"/>
</g>
<g id="clust35" class="cluster">
<title>cluster_EstablishmentModule_exports</title>
<polygon fill="none" stroke="black" points="2164,-78 2164,-130 2344,-130 2344,-78 2164,-78"/>
</g>
<g id="clust44" class="cluster">
<title>cluster_HomeModule</title>
<polygon fill="none" stroke="black" stroke-dasharray="1,5" points="3909,-146 3909,-214 4340,-214 4340,-146 3909,-146"/>
</g>
<g id="clust45" class="cluster">
<title>cluster_HomeModule_declarations</title>
<polygon fill="none" stroke="black" points="4200,-154 4200,-206 4332,-206 4332,-154 4200,-154"/>
</g>
<g id="clust47" class="cluster">
<title>cluster_HomeModule_imports</title>
<polygon fill="none" stroke="black" points="3917,-154 3917,-206 4192,-206 4192,-154 3917,-154"/>
</g>
<g id="clust57" class="cluster">
<title>cluster_LoginModule</title>
<polygon fill="none" stroke="black" stroke-dasharray="1,5" points="354,-70 354,-138 804,-138 804,-70 354,-70"/>
</g>
<g id="clust58" class="cluster">
<title>cluster_LoginModule_declarations</title>
<polygon fill="none" stroke="black" points="666,-78 666,-130 796,-130 796,-78 666,-78"/>
</g>
<g id="clust60" class="cluster">
<title>cluster_LoginModule_imports</title>
<polygon fill="none" stroke="black" points="504,-78 504,-130 658,-130 658,-78 504,-78"/>
</g>
<g id="clust63" class="cluster">
<title>cluster_LoginModule_providers</title>
<polygon fill="none" stroke="black" points="362,-78 362,-130 496,-130 496,-78 362,-78"/>
</g>
<g id="clust70" class="cluster">
<title>cluster_RegisterModule</title>
<polygon fill="none" stroke="black" stroke-dasharray="1,5" points="812,-70 812,-138 1148,-138 1148,-70 812,-70"/>
</g>
<g id="clust71" class="cluster">
<title>cluster_RegisterModule_declarations</title>
<polygon fill="none" stroke="black" points="996,-78 996,-130 1140,-130 1140,-78 996,-78"/>
</g>
<g id="clust73" class="cluster">
<title>cluster_RegisterModule_imports</title>
<polygon fill="none" stroke="black" points="820,-78 820,-130 988,-130 988,-78 820,-78"/>
</g>
<g id="clust83" class="cluster">
<title>cluster_SessionModule</title>
<polygon fill="none" stroke="black" stroke-dasharray="1,5" points="3823,-70 3823,-138 5305,-138 5305,-70 3823,-70"/>
</g>
<g id="clust84" class="cluster">
<title>cluster_SessionModule_declarations</title>
<polygon fill="none" stroke="black" points="4315,-78 4315,-130 5297,-130 5297,-78 4315,-78"/>
</g>
<g id="clust90" class="cluster">
<title>cluster_SessionModule_imports</title>
<polygon fill="none" stroke="black" points="4129,-78 4129,-130 4307,-130 4307,-78 4129,-78"/>
</g>
<g id="clust91" class="cluster">
<title>cluster_SessionModule_exports</title>
<polygon fill="none" stroke="black" points="3831,-78 3831,-130 4121,-130 4121,-78 3831,-78"/>
</g>
<g id="clust100" class="cluster">
<title>cluster_UserModule</title>
<polygon fill="none" stroke="black" stroke-dasharray="1,5" points="1156,-70 1156,-138 2148,-138 2148,-70 1156,-70"/>
</g>
<g id="clust101" class="cluster">
<title>cluster_UserModule_declarations</title>
<polygon fill="none" stroke="black" points="1650,-78 1650,-130 2140,-130 2140,-78 1650,-78"/>
</g>
<g id="clust105" class="cluster">
<title>cluster_UserModule_imports</title>
<polygon fill="none" stroke="black" points="1494,-78 1494,-130 1642,-130 1642,-78 1494,-78"/>
</g>
<g id="clust108" class="cluster">
<title>cluster_UserModule_providers</title>
<polygon fill="none" stroke="black" points="1164,-78 1164,-130 1486,-130 1486,-78 1164,-78"/>
</g>
<!-- AppComponent -->
<g id="node1" class="node">
<title>AppComponent</title>
<polygon fill="#ffffb3" stroke="black" points="2452.94,-266 2347.06,-266 2347.06,-230 2452.94,-230 2452.94,-266"/>
<text text-anchor="middle" x="2400" y="-243.8" font-family="Times,serif" font-size="14.00">AppComponent</text>
</g>
<!-- AppModule -->
<g id="node2" class="node">
<title>AppModule</title>
<polygon fill="#8dd3c7" stroke="black" points="2096.66,-331 2093.66,-335 2072.66,-335 2069.66,-331 2013.34,-331 2013.34,-295 2096.66,-295 2096.66,-331"/>
<text text-anchor="middle" x="2055" y="-308.8" font-family="Times,serif" font-size="14.00">AppModule</text>
</g>
<!-- AppComponent&#45;&gt;AppModule -->
<g id="edge1" class="edge">
<title>AppComponent&#45;&gt;AppModule</title>
<path fill="none" stroke="black" d="M2400,-266.28C2400,-287.32 2400,-319 2400,-319 2400,-319 2106.96,-319 2106.96,-319"/>
<polygon fill="black" stroke="black" points="2106.96,-315.5 2096.96,-319 2106.96,-322.5 2106.96,-315.5"/>
</g>
<!-- AppComponent  -->
<g id="node10" class="node">
<title>AppComponent </title>
<polygon fill="#80b1d3" stroke="black" points="2109.44,-396 2000.56,-396 2000.56,-360 2109.44,-360 2109.44,-396"/>
<text text-anchor="middle" x="2055" y="-373.8" font-family="Times,serif" font-size="14.00">AppComponent </text>
</g>
<!-- AppModule&#45;&gt;AppComponent  -->
<g id="edge9" class="edge">
<title>AppModule&#45;&gt;AppComponent </title>
<path fill="none" stroke="black" stroke-dasharray="1,5" d="M2055,-331.11C2055,-331.11 2055,-349.99 2055,-349.99"/>
<polygon fill="black" stroke="black" points="2051.5,-349.99 2055,-359.99 2058.5,-349.99 2051.5,-349.99"/>
</g>
<!-- AppRoutingModule -->
<g id="node3" class="node">
<title>AppRoutingModule</title>
<polygon fill="#8dd3c7" stroke="black" points="1702.27,-198 1699.27,-202 1678.27,-202 1675.27,-198 1573.73,-198 1573.73,-162 1702.27,-162 1702.27,-198"/>
<text text-anchor="middle" x="1638" y="-175.8" font-family="Times,serif" font-size="14.00">AppRoutingModule</text>
</g>
<!-- AppRoutingModule&#45;&gt;AppModule -->
<g id="edge2" class="edge">
<title>AppRoutingModule&#45;&gt;AppModule</title>
<path fill="none" stroke="black" d="M1638,-198.27C1638,-236.63 1638,-322 1638,-322 1638,-322 2003.11,-322 2003.11,-322"/>
<polygon fill="black" stroke="black" points="2003.11,-325.5 2013.11,-322 2003.11,-318.5 2003.11,-325.5"/>
</g>
<!-- BookingModule -->
<g id="node4" class="node">
<title>BookingModule</title>
<polygon fill="#8dd3c7" stroke="black" points="1827.78,-198 1824.78,-202 1803.78,-202 1800.78,-198 1720.22,-198 1720.22,-162 1827.78,-162 1827.78,-198"/>
<text text-anchor="middle" x="1774" y="-175.8" font-family="Times,serif" font-size="14.00">BookingModule</text>
</g>
<!-- BookingModule&#45;&gt;AppModule -->
<g id="edge3" class="edge">
<title>BookingModule&#45;&gt;AppModule</title>
<path fill="none" stroke="black" d="M1774,-198.21C1774,-234.64 1774,-313 1774,-313 1774,-313 2003.23,-313 2003.23,-313"/>
<polygon fill="black" stroke="black" points="2003.23,-316.5 2013.23,-313 2003.23,-309.5 2003.23,-316.5"/>
</g>
<!-- EstablishmentModule -->
<g id="node5" class="node">
<title>EstablishmentModule</title>
<polygon fill="#8dd3c7" stroke="black" points="2323.37,-198 2320.37,-202 2299.37,-202 2296.37,-198 2184.63,-198 2184.63,-162 2323.37,-162 2323.37,-198"/>
<text text-anchor="middle" x="2254" y="-175.8" font-family="Times,serif" font-size="14.00">EstablishmentModule</text>
</g>
<!-- EstablishmentModule&#45;&gt;AppModule -->
<g id="edge4" class="edge">
<title>EstablishmentModule&#45;&gt;AppModule</title>
<path fill="none" stroke="black" d="M2206.84,-198.2C2206.84,-233.31 2206.84,-307 2206.84,-307 2206.84,-307 2106.89,-307 2106.89,-307"/>
<polygon fill="black" stroke="black" points="2106.89,-303.5 2096.89,-307 2106.89,-310.5 2106.89,-303.5"/>
</g>
<!-- HomeModule -->
<g id="node6" class="node">
<title>HomeModule</title>
<polygon fill="#8dd3c7" stroke="black" points="2322.76,-266 2319.76,-270 2298.76,-270 2295.76,-266 2229.24,-266 2229.24,-230 2322.76,-230 2322.76,-266"/>
<text text-anchor="middle" x="2276" y="-243.8" font-family="Times,serif" font-size="14.00">HomeModule</text>
</g>
<!-- EstablishmentModule&#45;&gt;HomeModule -->
<g id="edge23" class="edge">
<title>EstablishmentModule&#45;&gt;HomeModule</title>
<path fill="none" stroke="black" d="M2244.75,-198.22C2244.75,-198.22 2244.75,-219.73 2244.75,-219.73"/>
<polygon fill="black" stroke="black" points="2241.25,-219.73 2244.75,-229.73 2248.25,-219.73 2241.25,-219.73"/>
</g>
<!-- EstablishmentComponent  -->
<g id="node22" class="node">
<title>EstablishmentComponent </title>
<polygon fill="#fb8072" stroke="black" points="2336.16,-122 2171.84,-122 2171.84,-86 2336.16,-86 2336.16,-122"/>
<text text-anchor="middle" x="2254" y="-99.8" font-family="Times,serif" font-size="14.00">EstablishmentComponent </text>
</g>
<!-- EstablishmentModule&#45;&gt;EstablishmentComponent  -->
<g id="edge21" class="edge">
<title>EstablishmentModule&#45;&gt;EstablishmentComponent </title>
<path fill="none" stroke="black" stroke-dasharray="5,2" d="M2254,-161.99C2254,-161.99 2254,-132.15 2254,-132.15"/>
<polygon fill="black" stroke="black" points="2257.5,-132.15 2254,-122.15 2250.5,-132.15 2257.5,-132.15"/>
</g>
<!-- HomeModule&#45;&gt;AppModule -->
<g id="edge5" class="edge">
<title>HomeModule&#45;&gt;AppModule</title>
<path fill="none" stroke="black" d="M2228.98,-248C2174.33,-248 2091.56,-248 2091.56,-248 2091.56,-248 2091.56,-284.89 2091.56,-284.89"/>
<polygon fill="black" stroke="black" points="2088.06,-284.89 2091.56,-294.89 2095.06,-284.89 2088.06,-284.89"/>
</g>
<!-- LoginModule -->
<g id="node7" class="node">
<title>LoginModule</title>
<polygon fill="#8dd3c7" stroke="black" points="1938.49,-198 1935.49,-202 1914.49,-202 1911.49,-198 1845.51,-198 1845.51,-162 1938.49,-162 1938.49,-198"/>
<text text-anchor="middle" x="1892" y="-175.8" font-family="Times,serif" font-size="14.00">LoginModule</text>
</g>
<!-- LoginModule&#45;&gt;AppModule -->
<g id="edge6" class="edge">
<title>LoginModule&#45;&gt;AppModule</title>
<path fill="none" stroke="black" d="M1892,-198.03C1892,-232.42 1892,-304 1892,-304 1892,-304 2003.02,-304 2003.02,-304"/>
<polygon fill="black" stroke="black" points="2003.02,-307.5 2013.02,-304 2003.02,-300.5 2003.02,-307.5"/>
</g>
<!-- RegisterModule -->
<g id="node8" class="node">
<title>RegisterModule</title>
<polygon fill="#8dd3c7" stroke="black" points="2063.2,-198 2060.2,-202 2039.2,-202 2036.2,-198 1956.8,-198 1956.8,-162 2063.2,-162 2063.2,-198"/>
<text text-anchor="middle" x="2010" y="-175.8" font-family="Times,serif" font-size="14.00">RegisterModule</text>
</g>
<!-- RegisterModule&#45;&gt;AppModule -->
<g id="edge7" class="edge">
<title>RegisterModule&#45;&gt;AppModule</title>
<path fill="none" stroke="black" d="M2038.14,-198.21C2038.14,-198.21 2038.14,-284.58 2038.14,-284.58"/>
<polygon fill="black" stroke="black" points="2034.64,-284.58 2038.14,-294.58 2041.64,-284.58 2034.64,-284.58"/>
</g>
<!-- UserModule -->
<g id="node9" class="node">
<title>UserModule</title>
<polygon fill="#8dd3c7" stroke="black" points="2166.98,-198 2163.98,-202 2142.98,-202 2139.98,-198 2081.02,-198 2081.02,-162 2166.98,-162 2166.98,-198"/>
<text text-anchor="middle" x="2124" y="-175.8" font-family="Times,serif" font-size="14.00">UserModule</text>
</g>
<!-- UserModule&#45;&gt;AppModule -->
<g id="edge8" class="edge">
<title>UserModule&#45;&gt;AppModule</title>
<path fill="none" stroke="black" d="M2086.28,-198.21C2086.28,-198.21 2086.28,-284.58 2086.28,-284.58"/>
<polygon fill="black" stroke="black" points="2082.78,-284.58 2086.28,-294.58 2089.78,-284.58 2082.78,-284.58"/>
</g>
<!-- BookingComponent -->
<g id="node11" class="node">
<title>BookingComponent</title>
<polygon fill="#ffffb3" stroke="black" points="329.56,-122 200.44,-122 200.44,-86 329.56,-86 329.56,-122"/>
<text text-anchor="middle" x="265" y="-99.8" font-family="Times,serif" font-size="14.00">BookingComponent</text>
</g>
<!-- BookingComponent&#45;&gt;BookingModule -->
<g id="edge10" class="edge">
<title>BookingComponent&#45;&gt;BookingModule</title>
<path fill="none" stroke="black" d="M265,-122.13C265,-132.71 265,-144 265,-144 265,-144 1773.16,-144 1773.16,-144 1773.16,-144 1773.16,-151.58 1773.16,-151.58"/>
<polygon fill="black" stroke="black" points="1769.66,-151.58 1773.16,-161.58 1776.66,-151.58 1769.66,-151.58"/>
</g>
<!-- BookingRoutingModule -->
<g id="node12" class="node">
<title>BookingRoutingModule</title>
<polygon fill="#8dd3c7" stroke="black" points="176.39,-122 173.39,-126 152.39,-126 149.39,-122 23.61,-122 23.61,-86 176.39,-86 176.39,-122"/>
<text text-anchor="middle" x="100" y="-99.8" font-family="Times,serif" font-size="14.00">BookingRoutingModule</text>
</g>
<!-- BookingRoutingModule&#45;&gt;BookingModule -->
<g id="edge11" class="edge">
<title>BookingRoutingModule&#45;&gt;BookingModule</title>
<path fill="none" stroke="black" d="M100,-122.06C100,-133.44 100,-146 100,-146 100,-146 1746.63,-146 1746.63,-146 1746.63,-146 1746.63,-151.81 1746.63,-151.81"/>
<polygon fill="black" stroke="black" points="1743.13,-151.81 1746.63,-161.81 1750.13,-151.81 1743.13,-151.81"/>
</g>
<!-- EstablishmentAddComponent -->
<g id="node13" class="node">
<title>EstablishmentAddComponent</title>
<polygon fill="#ffffb3" stroke="black" points="2925.26,-122 2740.74,-122 2740.74,-86 2925.26,-86 2925.26,-122"/>
<text text-anchor="middle" x="2833" y="-99.8" font-family="Times,serif" font-size="14.00">EstablishmentAddComponent</text>
</g>
<!-- EstablishmentAddComponent&#45;&gt;EstablishmentModule -->
<g id="edge12" class="edge">
<title>EstablishmentAddComponent&#45;&gt;EstablishmentModule</title>
<path fill="none" stroke="black" d="M2833,-122.16C2833,-144.35 2833,-179 2833,-179 2833,-179 2333.55,-179 2333.55,-179"/>
<polygon fill="black" stroke="black" points="2333.55,-175.5 2323.55,-179 2333.55,-182.5 2333.55,-175.5"/>
</g>
<!-- EstablishmentComponent -->
<g id="node14" class="node">
<title>EstablishmentComponent</title>
<polygon fill="#ffffb3" stroke="black" points="2722.16,-122 2561.84,-122 2561.84,-86 2722.16,-86 2722.16,-122"/>
<text text-anchor="middle" x="2642" y="-99.8" font-family="Times,serif" font-size="14.00">EstablishmentComponent</text>
</g>
<!-- EstablishmentComponent&#45;&gt;EstablishmentModule -->
<g id="edge13" class="edge">
<title>EstablishmentComponent&#45;&gt;EstablishmentModule</title>
<path fill="none" stroke="black" d="M2642,-122.17C2642,-143.5 2642,-176 2642,-176 2642,-176 2333.81,-176 2333.81,-176"/>
<polygon fill="black" stroke="black" points="2333.81,-172.5 2323.81,-176 2333.81,-179.5 2333.81,-172.5"/>
</g>
<!-- EstablishmentEditComponent -->
<g id="node15" class="node">
<title>EstablishmentEditComponent</title>
<polygon fill="#ffffb3" stroke="black" points="2543.99,-122 2360.01,-122 2360.01,-86 2543.99,-86 2543.99,-122"/>
<text text-anchor="middle" x="2452" y="-99.8" font-family="Times,serif" font-size="14.00">EstablishmentEditComponent</text>
</g>
<!-- EstablishmentEditComponent&#45;&gt;EstablishmentModule -->
<g id="edge14" class="edge">
<title>EstablishmentEditComponent&#45;&gt;EstablishmentModule</title>
<path fill="none" stroke="black" d="M2406.36,-122.03C2406.36,-142.77 2406.36,-174 2406.36,-174 2406.36,-174 2333.49,-174 2333.49,-174"/>
<polygon fill="black" stroke="black" points="2333.49,-170.5 2323.49,-174 2333.49,-177.5 2333.49,-170.5"/>
</g>
<!-- EstablishmentListComponent -->
<g id="node16" class="node">
<title>EstablishmentListComponent</title>
<polygon fill="#ffffb3" stroke="black" points="3331.44,-122 3148.56,-122 3148.56,-86 3331.44,-86 3331.44,-122"/>
<text text-anchor="middle" x="3240" y="-99.8" font-family="Times,serif" font-size="14.00">EstablishmentListComponent</text>
</g>
<!-- EstablishmentListComponent&#45;&gt;EstablishmentModule -->
<g id="edge15" class="edge">
<title>EstablishmentListComponent&#45;&gt;EstablishmentModule</title>
<path fill="none" stroke="black" d="M3240,-122.38C3240,-146.28 3240,-185 3240,-185 3240,-185 2333.73,-185 2333.73,-185"/>
<polygon fill="black" stroke="black" points="2333.73,-181.5 2323.73,-185 2333.73,-188.5 2333.73,-181.5"/>
</g>
<!-- EstablishmentPageComponent -->
<g id="node17" class="node">
<title>EstablishmentPageComponent</title>
<polygon fill="#ffffb3" stroke="black" points="3130.87,-122 2943.13,-122 2943.13,-86 3130.87,-86 3130.87,-122"/>
<text text-anchor="middle" x="3037" y="-99.8" font-family="Times,serif" font-size="14.00">EstablishmentPageComponent</text>
</g>
<!-- EstablishmentPageComponent&#45;&gt;EstablishmentModule -->
<g id="edge16" class="edge">
<title>EstablishmentPageComponent&#45;&gt;EstablishmentModule</title>
<path fill="none" stroke="black" d="M3037,-122.09C3037,-145.13 3037,-182 3037,-182 3037,-182 2333.49,-182 2333.49,-182"/>
<polygon fill="black" stroke="black" points="2333.49,-178.5 2323.49,-182 2333.49,-185.5 2333.49,-178.5"/>
</g>
<!-- EstablishmentRouting -->
<g id="node18" class="node">
<title>EstablishmentRouting</title>
<polygon fill="#8dd3c7" stroke="black" points="3495.44,-122 3492.44,-126 3471.44,-126 3468.44,-122 3354.56,-122 3354.56,-86 3495.44,-86 3495.44,-122"/>
<text text-anchor="middle" x="3425" y="-99.8" font-family="Times,serif" font-size="14.00">EstablishmentRouting</text>
</g>
<!-- EstablishmentRouting&#45;&gt;EstablishmentModule -->
<g id="edge17" class="edge">
<title>EstablishmentRouting&#45;&gt;EstablishmentModule</title>
<path fill="none" stroke="black" d="M3425,-122.01C3425,-146.42 3425,-187 3425,-187 3425,-187 2333.74,-187 2333.74,-187"/>
<polygon fill="black" stroke="black" points="2333.74,-183.5 2323.74,-187 2333.74,-190.5 2333.74,-183.5"/>
</g>
<!-- NgForOf -->
<g id="node19" class="node">
<title>NgForOf</title>
<polygon fill="#8dd3c7" stroke="black" points="3798.82,-122 3795.82,-126 3774.82,-126 3771.82,-122 3731.18,-122 3731.18,-86 3798.82,-86 3798.82,-122"/>
<text text-anchor="middle" x="3765" y="-99.8" font-family="Times,serif" font-size="14.00">NgForOf</text>
</g>
<!-- NgForOf&#45;&gt;EstablishmentModule -->
<g id="edge18" class="edge">
<title>NgForOf&#45;&gt;EstablishmentModule</title>
<path fill="none" stroke="black" d="M3753.78,-122.18C3753.78,-148.99 3753.78,-196 3753.78,-196 3753.78,-196 2333.83,-196 2333.83,-196"/>
<polygon fill="black" stroke="black" points="2333.83,-192.5 2323.83,-196 2333.83,-199.5 2333.83,-192.5"/>
</g>
<!-- SessionModule -->
<g id="node25" class="node">
<title>SessionModule</title>
<polygon fill="#8dd3c7" stroke="black" points="4027.33,-198 4024.33,-202 4003.33,-202 4000.33,-198 3924.67,-198 3924.67,-162 4027.33,-162 4027.33,-198"/>
<text text-anchor="middle" x="3976" y="-175.8" font-family="Times,serif" font-size="14.00">SessionModule</text>
</g>
<!-- NgForOf&#45;&gt;SessionModule -->
<g id="edge38" class="edge">
<title>NgForOf&#45;&gt;SessionModule</title>
<path fill="none" stroke="black" d="M3776.22,-122.3C3776.22,-140.27 3776.22,-165 3776.22,-165 3776.22,-165 3914.81,-165 3914.81,-165"/>
<polygon fill="black" stroke="black" points="3914.81,-168.5 3924.81,-165 3914.81,-161.5 3914.81,-168.5"/>
</g>
<!-- NgIf -->
<g id="node20" class="node">
<title>NgIf</title>
<polygon fill="#8dd3c7" stroke="black" points="3713,-122 3710,-126 3689,-126 3686,-122 3659,-122 3659,-86 3713,-86 3713,-122"/>
<text text-anchor="middle" x="3686" y="-99.8" font-family="Times,serif" font-size="14.00">NgIf</text>
</g>
<!-- NgIf&#45;&gt;EstablishmentModule -->
<g id="edge19" class="edge">
<title>NgIf&#45;&gt;EstablishmentModule</title>
<path fill="none" stroke="black" d="M3677,-122.01C3677,-148.02 3677,-193 3677,-193 3677,-193 2333.6,-193 2333.6,-193"/>
<polygon fill="black" stroke="black" points="2333.6,-189.5 2323.6,-193 2333.6,-196.5 2333.6,-189.5"/>
</g>
<!-- NgIf&#45;&gt;SessionModule -->
<g id="edge39" class="edge">
<title>NgIf&#45;&gt;SessionModule</title>
<path fill="none" stroke="black" d="M3695,-122.17C3695,-141.09 3695,-168 3695,-168 3695,-168 3914.79,-168 3914.79,-168"/>
<polygon fill="black" stroke="black" points="3914.79,-171.5 3924.79,-168 3914.79,-164.5 3914.79,-171.5"/>
</g>
<!-- NgOptimizedImage -->
<g id="node21" class="node">
<title>NgOptimizedImage</title>
<polygon fill="#8dd3c7" stroke="black" points="3640.69,-122 3637.69,-126 3616.69,-126 3613.69,-122 3513.31,-122 3513.31,-86 3640.69,-86 3640.69,-122"/>
<text text-anchor="middle" x="3577" y="-99.8" font-family="Times,serif" font-size="14.00">NgOptimizedImage</text>
</g>
<!-- NgOptimizedImage&#45;&gt;EstablishmentModule -->
<g id="edge20" class="edge">
<title>NgOptimizedImage&#45;&gt;EstablishmentModule</title>
<path fill="none" stroke="black" d="M3555.8,-122.24C3555.8,-147.48 3555.8,-190 3555.8,-190 3555.8,-190 2333.53,-190 2333.53,-190"/>
<polygon fill="black" stroke="black" points="2333.53,-186.5 2323.53,-190 2333.53,-193.5 2333.53,-186.5"/>
</g>
<!-- NgOptimizedImage&#45;&gt;SessionModule -->
<g id="edge40" class="edge">
<title>NgOptimizedImage&#45;&gt;SessionModule</title>
<path fill="none" stroke="black" d="M3598.2,-122.31C3598.2,-142.15 3598.2,-171 3598.2,-171 3598.2,-171 3914.65,-171 3914.65,-171"/>
<polygon fill="black" stroke="black" points="3914.65,-174.5 3924.65,-171 3914.65,-167.5 3914.65,-174.5"/>
</g>
<!-- HomeComponent -->
<g id="node23" class="node">
<title>HomeComponent</title>
<polygon fill="#ffffb3" stroke="black" points="4323.55,-198 4208.45,-198 4208.45,-162 4323.55,-162 4323.55,-198"/>
<text text-anchor="middle" x="4266" y="-175.8" font-family="Times,serif" font-size="14.00">HomeComponent</text>
</g>
<!-- HomeComponent&#45;&gt;HomeModule -->
<g id="edge22" class="edge">
<title>HomeComponent&#45;&gt;HomeModule</title>
<path fill="none" stroke="black" d="M4266,-198.15C4266,-210.27 4266,-224 4266,-224 4266,-224 2307.25,-224 2307.25,-224 2307.25,-224 2307.25,-224.58 2307.25,-224.58"/>
<polygon fill="black" stroke="black" points="2303.75,-219.81 2307.25,-229.81 2310.75,-219.81 2303.75,-219.81"/>
</g>
<!-- HomeRoutingModule -->
<g id="node24" class="node">
<title>HomeRoutingModule</title>
<polygon fill="#8dd3c7" stroke="black" points="4184.38,-198 4181.38,-202 4160.38,-202 4157.38,-198 4045.62,-198 4045.62,-162 4184.38,-162 4184.38,-198"/>
<text text-anchor="middle" x="4115" y="-175.8" font-family="Times,serif" font-size="14.00">HomeRoutingModule</text>
</g>
<!-- HomeRoutingModule&#45;&gt;HomeModule -->
<g id="edge24" class="edge">
<title>HomeRoutingModule&#45;&gt;HomeModule</title>
<path fill="none" stroke="black" d="M4091.85,-198.03C4091.85,-204.85 4091.85,-211 4091.85,-211 4091.85,-211 2276,-211 2276,-211 2276,-211 2276,-219.93 2276,-219.93"/>
<polygon fill="black" stroke="black" points="2272.5,-219.93 2276,-229.93 2279.5,-219.93 2272.5,-219.93"/>
</g>
<!-- HomeRoutingModule&#45;&gt;HomeModule -->
<g id="edge25" class="edge">
<title>HomeRoutingModule&#45;&gt;HomeModule</title>
<path fill="none" stroke="black" d="M4138.15,-198.11C4138.15,-207.9 4138.15,-218 4138.15,-218 4138.15,-218 2291.63,-218 2291.63,-218 2291.63,-218 2291.63,-219.86 2291.63,-219.86"/>
<polygon fill="black" stroke="black" points="2288.13,-219.86 2291.63,-229.86 2295.13,-219.86 2288.13,-219.86"/>
</g>
<!-- SessionModule&#45;&gt;HomeModule -->
<g id="edge26" class="edge">
<title>SessionModule&#45;&gt;HomeModule</title>
<path fill="none" stroke="black" d="M3976,-198.17C3976,-202.05 3976,-205 3976,-205 3976,-205 2260.37,-205 2260.37,-205 2260.37,-205 2260.37,-219.51 2260.37,-219.51"/>
<polygon fill="black" stroke="black" points="2256.87,-219.51 2260.37,-229.51 2263.87,-219.51 2256.87,-219.51"/>
</g>
<!-- SessionEstablishmentListingPageComponent  -->
<g id="node38" class="node">
<title>SessionEstablishmentListingPageComponent </title>
<polygon fill="#fb8072" stroke="black" points="4112.81,-122 3839.19,-122 3839.19,-86 4112.81,-86 4112.81,-122"/>
<text text-anchor="middle" x="3976" y="-99.8" font-family="Times,serif" font-size="14.00">SessionEstablishmentListingPageComponent </text>
</g>
<!-- SessionModule&#45;&gt;SessionEstablishmentListingPageComponent  -->
<g id="edge42" class="edge">
<title>SessionModule&#45;&gt;SessionEstablishmentListingPageComponent </title>
<path fill="none" stroke="black" stroke-dasharray="5,2" d="M3936.21,-161.99C3936.21,-161.99 3936.21,-132.15 3936.21,-132.15"/>
<polygon fill="black" stroke="black" points="3939.71,-132.15 3936.21,-122.15 3932.71,-132.15 3939.71,-132.15"/>
</g>
<!-- LoginComponent -->
<g id="node26" class="node">
<title>LoginComponent</title>
<polygon fill="#ffffb3" stroke="black" points="788.28,-122 673.72,-122 673.72,-86 788.28,-86 788.28,-122"/>
<text text-anchor="middle" x="731" y="-99.8" font-family="Times,serif" font-size="14.00">LoginComponent</text>
</g>
<!-- LoginComponent&#45;&gt;LoginModule -->
<g id="edge27" class="edge">
<title>LoginComponent&#45;&gt;LoginModule</title>
<path fill="none" stroke="black" d="M731,-122.19C731,-130.28 731,-138 731,-138 731,-138 1915.25,-138 1915.25,-138 1915.25,-138 1915.25,-151.94 1915.25,-151.94"/>
<polygon fill="black" stroke="black" points="1911.75,-151.94 1915.25,-161.94 1918.75,-151.94 1911.75,-151.94"/>
</g>
<!-- LoginRoutingModule -->
<g id="node27" class="node">
<title>LoginRoutingModule</title>
<polygon fill="#8dd3c7" stroke="black" points="650.11,-122 647.11,-126 626.11,-126 623.11,-122 511.89,-122 511.89,-86 650.11,-86 650.11,-122"/>
<text text-anchor="middle" x="581" y="-99.8" font-family="Times,serif" font-size="14.00">LoginRoutingModule</text>
</g>
<!-- LoginRoutingModule&#45;&gt;LoginModule -->
<g id="edge28" class="edge">
<title>LoginRoutingModule&#45;&gt;LoginModule</title>
<path fill="none" stroke="black" d="M581,-122.42C581,-131.28 581,-140 581,-140 581,-140 1892,-140 1892,-140 1892,-140 1892,-151.87 1892,-151.87"/>
<polygon fill="black" stroke="black" points="1888.5,-151.87 1892,-161.87 1895.5,-151.87 1888.5,-151.87"/>
</g>
<!-- AuthService -->
<g id="node28" class="node">
<title>AuthService</title>
<ellipse fill="#fdb462" stroke="black" cx="429" cy="-104" rx="59.11" ry="18"/>
<text text-anchor="middle" x="429" y="-99.8" font-family="Times,serif" font-size="14.00">AuthService</text>
</g>
<!-- AuthService&#45;&gt;LoginModule -->
<g id="edge29" class="edge">
<title>AuthService&#45;&gt;LoginModule</title>
<path fill="none" stroke="black" d="M429,-122.11C429,-131.9 429,-142 429,-142 429,-142 1868.75,-142 1868.75,-142 1868.75,-142 1868.75,-151.89 1868.75,-151.89"/>
<polygon fill="black" stroke="black" points="1865.25,-151.89 1868.75,-161.89 1872.25,-151.89 1865.25,-151.89"/>
</g>
<!-- RegisterComponent -->
<g id="node29" class="node">
<title>RegisterComponent</title>
<polygon fill="#ffffb3" stroke="black" points="1131.98,-122 1004.02,-122 1004.02,-86 1131.98,-86 1131.98,-122"/>
<text text-anchor="middle" x="1068" y="-99.8" font-family="Times,serif" font-size="14.00">RegisterComponent</text>
</g>
<!-- RegisterComponent&#45;&gt;RegisterModule -->
<g id="edge30" class="edge">
<title>RegisterComponent&#45;&gt;RegisterModule</title>
<path fill="none" stroke="black" d="M1068,-122.14C1068,-128.46 1068,-134 1068,-134 1068,-134 1970.55,-134 1970.55,-134 1970.55,-134 1970.55,-151.82 1970.55,-151.82"/>
<polygon fill="black" stroke="black" points="1967.05,-151.82 1970.55,-161.82 1974.05,-151.82 1967.05,-151.82"/>
</g>
<!-- RegisterRoutingModule -->
<g id="node30" class="node">
<title>RegisterRoutingModule</title>
<polygon fill="#8dd3c7" stroke="black" points="979.82,-122 976.82,-126 955.82,-126 952.82,-122 828.18,-122 828.18,-86 979.82,-86 979.82,-122"/>
<text text-anchor="middle" x="904" y="-99.8" font-family="Times,serif" font-size="14.00">RegisterRoutingModule</text>
</g>
<!-- RegisterRoutingModule&#45;&gt;RegisterModule -->
<g id="edge31" class="edge">
<title>RegisterRoutingModule&#45;&gt;RegisterModule</title>
<path fill="none" stroke="black" d="M904,-122.24C904,-129.43 904,-136 904,-136 904,-136 1963.73,-136 1963.73,-136 1963.73,-136 1963.73,-151.85 1963.73,-151.85"/>
<polygon fill="black" stroke="black" points="1960.23,-151.85 1963.73,-161.85 1967.23,-151.85 1960.23,-151.85"/>
</g>
<!-- SessionComponent -->
<g id="node31" class="node">
<title>SessionComponent</title>
<polygon fill="#ffffb3" stroke="black" points="4911.11,-122 4786.89,-122 4786.89,-86 4911.11,-86 4911.11,-122"/>
<text text-anchor="middle" x="4849" y="-99.8" font-family="Times,serif" font-size="14.00">SessionComponent</text>
</g>
<!-- SessionComponent&#45;&gt;SessionModule -->
<g id="edge32" class="edge">
<title>SessionComponent&#45;&gt;SessionModule</title>
<path fill="none" stroke="black" d="M4849,-122.19C4849,-137.18 4849,-156 4849,-156 4849,-156 3993.05,-156 3993.05,-156 3993.05,-156 3993.05,-156.58 3993.05,-156.58"/>
<polygon fill="black" stroke="black" points="3989.55,-151.81 3993.05,-161.81 3996.55,-151.81 3989.55,-151.81"/>
</g>
<!-- SessionDetailComponent -->
<g id="node32" class="node">
<title>SessionDetailComponent</title>
<polygon fill="#ffffb3" stroke="black" points="4769.32,-122 4610.68,-122 4610.68,-86 4769.32,-86 4769.32,-122"/>
<text text-anchor="middle" x="4690" y="-99.8" font-family="Times,serif" font-size="14.00">SessionDetailComponent</text>
</g>
<!-- SessionDetailComponent&#45;&gt;SessionModule -->
<g id="edge33" class="edge">
<title>SessionDetailComponent&#45;&gt;SessionModule</title>
<path fill="none" stroke="black" d="M4690,-122.05C4690,-136.37 4690,-154 4690,-154 4690,-154 3981.68,-154 3981.68,-154 3981.68,-154 3981.68,-154.79 3981.68,-154.79"/>
<polygon fill="black" stroke="black" points="3978.18,-151.94 3981.68,-161.94 3985.18,-151.94 3978.18,-151.94"/>
</g>
<!-- SessionEstablishmentListingPageComponent -->
<g id="node33" class="node">
<title>SessionEstablishmentListingPageComponent</title>
<polygon fill="#ffffb3" stroke="black" points="4593.31,-122 4322.69,-122 4322.69,-86 4593.31,-86 4593.31,-122"/>
<text text-anchor="middle" x="4458" y="-99.8" font-family="Times,serif" font-size="14.00">SessionEstablishmentListingPageComponent</text>
</g>
<!-- SessionEstablishmentListingPageComponent&#45;&gt;SessionModule -->
<g id="edge34" class="edge">
<title>SessionEstablishmentListingPageComponent&#45;&gt;SessionModule</title>
<path fill="none" stroke="black" d="M4458.46,-122.15C4458.46,-135.74 4458.46,-152 4458.46,-152 4458.46,-152 3970.32,-152 3970.32,-152 3970.32,-152 3970.32,-152.98 3970.32,-152.98"/>
<polygon fill="black" stroke="black" points="3966.82,-151.79 3970.32,-161.79 3973.82,-151.79 3966.82,-151.79"/>
</g>
<!-- SessionFilterComponent -->
<g id="node34" class="node">
<title>SessionFilterComponent</title>
<polygon fill="#ffffb3" stroke="black" points="5289.44,-122 5134.56,-122 5134.56,-86 5289.44,-86 5289.44,-122"/>
<text text-anchor="middle" x="5212" y="-99.8" font-family="Times,serif" font-size="14.00">SessionFilterComponent</text>
</g>
<!-- SessionFilterComponent&#45;&gt;SessionModule -->
<g id="edge35" class="edge">
<title>SessionFilterComponent&#45;&gt;SessionModule</title>
<path fill="none" stroke="black" d="M5212,-122.03C5212,-138.4 5212,-160 5212,-160 5212,-160 4015.79,-160 4015.79,-160 4015.79,-160 4015.79,-160.18 4015.79,-160.18"/>
<polygon fill="black" stroke="black" points="4012.29,-151.85 4015.79,-161.85 4019.29,-151.85 4012.29,-151.85"/>
</g>
<!-- SessionsListingAllComponent -->
<g id="node35" class="node">
<title>SessionsListingAllComponent</title>
<polygon fill="#ffffb3" stroke="black" points="5116.61,-122 4929.39,-122 4929.39,-86 5116.61,-86 5116.61,-122"/>
<text text-anchor="middle" x="5023" y="-99.8" font-family="Times,serif" font-size="14.00">SessionsListingAllComponent</text>
</g>
<!-- SessionsListingAllComponent&#45;&gt;SessionModule -->
<g id="edge36" class="edge">
<title>SessionsListingAllComponent&#45;&gt;SessionModule</title>
<path fill="none" stroke="black" d="M5023,-122.28C5023,-137.95 5023,-158 5023,-158 5023,-158 4004.42,-158 4004.42,-158 4004.42,-158 4004.42,-158.38 4004.42,-158.38"/>
<polygon fill="black" stroke="black" points="4000.92,-151.83 4004.42,-161.83 4007.92,-151.83 4000.92,-151.83"/>
</g>
<!-- NgClass -->
<g id="node36" class="node">
<title>NgClass</title>
<polygon fill="#8dd3c7" stroke="black" points="4298.94,-122 4295.94,-126 4274.94,-126 4271.94,-122 4235.06,-122 4235.06,-86 4298.94,-86 4298.94,-122"/>
<text text-anchor="middle" x="4267" y="-99.8" font-family="Times,serif" font-size="14.00">NgClass</text>
</g>
<!-- NgClass&#45;&gt;SessionModule -->
<g id="edge37" class="edge">
<title>NgClass&#45;&gt;SessionModule</title>
<path fill="none" stroke="black" d="M4267,-122.18C4267,-135.04 4267,-150 4267,-150 4267,-150 3958.95,-150 3958.95,-150 3958.95,-150 3958.95,-151.86 3958.95,-151.86"/>
<polygon fill="black" stroke="black" points="3955.45,-151.86 3958.95,-161.86 3962.45,-151.86 3955.45,-151.86"/>
</g>
<!-- RouterLink -->
<g id="node37" class="node">
<title>RouterLink</title>
<polygon fill="#8dd3c7" stroke="black" points="4217.05,-122 4214.05,-126 4193.05,-126 4190.05,-122 4136.95,-122 4136.95,-86 4217.05,-86 4217.05,-122"/>
<text text-anchor="middle" x="4177" y="-99.8" font-family="Times,serif" font-size="14.00">RouterLink</text>
</g>
<!-- RouterLink&#45;&gt;SessionModule -->
<g id="edge41" class="edge">
<title>RouterLink&#45;&gt;SessionModule</title>
<path fill="none" stroke="black" d="M4160.58,-122.15C4160.58,-134.27 4160.58,-148 4160.58,-148 4160.58,-148 3947.58,-148 3947.58,-148 3947.58,-148 3947.58,-151.76 3947.58,-151.76"/>
<polygon fill="black" stroke="black" points="3944.08,-151.76 3947.58,-161.76 3951.08,-151.76 3944.08,-151.76"/>
</g>
<!-- UserDashboardComponent -->
<g id="node39" class="node">
<title>UserDashboardComponent</title>
<polygon fill="#ffffb3" stroke="black" points="1826.4,-122 1657.6,-122 1657.6,-86 1826.4,-86 1826.4,-122"/>
<text text-anchor="middle" x="1742" y="-99.8" font-family="Times,serif" font-size="14.00">UserDashboardComponent</text>
</g>
<!-- UserDashboardComponent&#45;&gt;UserModule -->
<g id="edge43" class="edge">
<title>UserDashboardComponent&#45;&gt;UserModule</title>
<path fill="none" stroke="black" d="M1799.68,-122.17C1799.68,-124.45 1799.68,-126 1799.68,-126 1799.68,-126 2110.02,-126 2110.02,-126 2110.02,-126 2110.02,-151.72 2110.02,-151.72"/>
<polygon fill="black" stroke="black" points="2106.52,-151.72 2110.02,-161.72 2113.52,-151.72 2106.52,-151.72"/>
</g>
<!-- UserListComponent -->
<g id="node40" class="node">
<title>UserListComponent</title>
<polygon fill="#ffffb3" stroke="black" points="2131.54,-122 2002.46,-122 2002.46,-86 2131.54,-86 2131.54,-122"/>
<text text-anchor="middle" x="2067" y="-99.8" font-family="Times,serif" font-size="14.00">UserListComponent</text>
</g>
<!-- UserListComponent&#45;&gt;UserModule -->
<g id="edge44" class="edge">
<title>UserListComponent&#45;&gt;UserModule</title>
<path fill="none" stroke="black" d="M2124.52,-122.01C2124.52,-122.01 2124.52,-151.85 2124.52,-151.85"/>
<polygon fill="black" stroke="black" points="2121.02,-151.85 2124.52,-161.85 2128.02,-151.85 2121.02,-151.85"/>
</g>
<!-- UsersPageComponent -->
<g id="node41" class="node">
<title>UsersPageComponent</title>
<polygon fill="#ffffb3" stroke="black" points="1984.42,-122 1843.58,-122 1843.58,-86 1984.42,-86 1984.42,-122"/>
<text text-anchor="middle" x="1914" y="-99.8" font-family="Times,serif" font-size="14.00">UsersPageComponent</text>
</g>
<!-- UsersPageComponent&#45;&gt;UserModule -->
<g id="edge45" class="edge">
<title>UsersPageComponent&#45;&gt;UserModule</title>
<path fill="none" stroke="black" d="M1977.38,-122.15C1977.38,-123.3 1977.38,-124 1977.38,-124 1977.38,-124 2117.27,-124 2117.27,-124 2117.27,-124 2117.27,-151.97 2117.27,-151.97"/>
<polygon fill="black" stroke="black" points="2113.77,-151.97 2117.27,-161.97 2120.77,-151.97 2113.77,-151.97"/>
</g>
<!-- UserRoutingModule -->
<g id="node42" class="node">
<title>UserRoutingModule</title>
<polygon fill="#8dd3c7" stroke="black" points="1633.59,-122 1630.59,-126 1609.59,-126 1606.59,-122 1502.41,-122 1502.41,-86 1633.59,-86 1633.59,-122"/>
<text text-anchor="middle" x="1568" y="-99.8" font-family="Times,serif" font-size="14.00">UserRoutingModule</text>
</g>
<!-- UserRoutingModule&#45;&gt;UserModule -->
<g id="edge46" class="edge">
<title>UserRoutingModule&#45;&gt;UserModule</title>
<path fill="none" stroke="black" d="M1603.58,-122.19C1603.58,-125.54 1603.58,-128 1603.58,-128 1603.58,-128 2102.76,-128 2102.76,-128 2102.76,-128 2102.76,-151.81 2102.76,-151.81"/>
<polygon fill="black" stroke="black" points="2099.26,-151.81 2102.76,-161.81 2106.26,-151.81 2099.26,-151.81"/>
</g>
<!-- UserFacadeService -->
<g id="node43" class="node">
<title>UserFacadeService</title>
<ellipse fill="#fdb462" stroke="black" cx="1392" cy="-104" rx="85.63" ry="18"/>
<text text-anchor="middle" x="1392" y="-99.8" font-family="Times,serif" font-size="14.00">UserFacadeService</text>
</g>
<!-- UserFacadeService&#45;&gt;UserModule -->
<g id="edge47" class="edge">
<title>UserFacadeService&#45;&gt;UserModule</title>
<path fill="none" stroke="black" d="M1392,-122.06C1392,-126.49 1392,-130 1392,-130 1392,-130 2095.51,-130 2095.51,-130 2095.51,-130 2095.51,-151.95 2095.51,-151.95"/>
<polygon fill="black" stroke="black" points="2092.01,-151.95 2095.51,-161.95 2099.01,-151.95 2092.01,-151.95"/>
</g>
<!-- UserService -->
<g id="node44" class="node">
<title>UserService</title>
<ellipse fill="#fdb462" stroke="black" cx="1230" cy="-104" rx="58.44" ry="18"/>
<text text-anchor="middle" x="1230" y="-99.8" font-family="Times,serif" font-size="14.00">UserService</text>
</g>
<!-- UserService&#45;&gt;UserModule -->
<g id="edge48" class="edge">
<title>UserService&#45;&gt;UserModule</title>
<path fill="none" stroke="black" d="M1230,-122.21C1230,-127.55 1230,-132 1230,-132 1230,-132 2088.26,-132 2088.26,-132 2088.26,-132 2088.26,-151.85 2088.26,-151.85"/>
<polygon fill="black" stroke="black" points="2084.76,-151.85 2088.26,-161.85 2091.76,-151.85 2084.76,-151.85"/>
</g>
</g>
</svg>
